 <!DOCTYPE svg PUBLIC "-//W3C//DTD SVG 1.1//EN" "http://www.w3.org/Graphics/SVG/1.1/DTD/svg11.dtd">
<svg xmlns="http://www.w3.org/2000/svg" width="865.76" height="682.89" viewBox="0 0 865.76 682.89">
<defs>
<style xmlns="http://www.w3.org/1999/xhtml">*, ::after, ::before { box-sizing: border-box; }
img, svg { vertical-align: middle; }
</style>
<style xmlns="http://www.w3.org/1999/xhtml">*, body, html { -webkit-font-smoothing: antialiased; }
img, svg { max-width: 100%; }
</style>
</defs>
<path d="M565.86,657.47s-1-27.52,0-26.58,120,0,120,0l75.43,18.41v9.64Z" fill="#e0e0e0"/>
<path d="M149.24,332.2s-11.94-.85-10.86,25.95,3.85,41.09,3.85,41.09-.36,5.94-5,4.73-13.25-6.91-17.58-2.54-2.86,11.36,3,19.46,18.17,26.28,19.27,28,1.58,4.65-1.75,4.37-25.24-7.77-28.2,2.9,17.11,30.49,19.33,32.76,2.28,3.61,1.39,4.95-8-1.86-14.38-3.73-14.06-2.92-15.22,3.37,7.69,24.69,40.85,44.07L160,545.43,175,535.81c31.06-22.59,38-41.8,36.28-47.94S202,483.53,195.85,486s-12.95,6.4-13.95,5.15-1-2.65.89-5.06,19.94-24.21,16-34.53-25.15-.69-28.4-.08-3.15-2.44-2.17-4.18,11.28-21.1,16.32-29.75,5.93-15.66,1.08-19.68-12.73,2.76-17.2,4.37S163,398,163,398s1.29-14.48-.3-41.27S149,332.12,149,332.12" fill="#ebebeb"/>
<path d="M150.18,356.21v.56a7.59,7.59,0,0,0,.13,1.58c.11,1.48.25,3.61.44,6.31.36,5.49.84,13.46,1.37,23.3,1.09,19.67,2.37,46.86,3.69,76.9s2.51,57.24,3.51,76.93c.49,9.81.9,17.77,1.18,23.29.14,2.73.24,4.86.31,6.31v1.66a2.53,2.53,0,0,1,0,.55v-.55a9.54,9.54,0,0,0-.12-1.66c-.1-1.46-.24-3.59-.43-6.31-.36-5.49-.83-13.45-1.39-23.29-1.08-19.67-2.36-46.87-3.67-76.92s-2.4-57.13-3.44-76.8c-.5-9.81-.91-17.78-1.18-23.3-.14-2.74-.25-4.87-.32-6.31v-1.65Z" fill="#e0e0e0"/>
<path d="M131.52,410a4.91,4.91,0,0,1,1,.82c.61.55,1.46,1.39,2.52,2.43,2.11,2.08,4.94,5,8,8.36l7.81,8.53,2.36,2.59a5.24,5.24,0,0,1,.84,1,5.27,5.27,0,0,1-1-.82c-.61-.55-1.48-1.39-2.52-2.45-2.08-2.1-4.87-5.09-7.89-8.41l-7.88-8.48c-.93-1-1.72-1.86-2.39-2.56A5.77,5.77,0,0,1,131.52,410Z" fill="#e0e0e0"/>
<path d="M155.63,433.17c-.12-.13,5.72-6.23,13-13.65S182,406.19,182.13,406.3s-5.71,6.31-13,13.65S155.75,433.28,155.63,433.17Z" fill="#e0e0e0"/>
<path d="M155.56,479.38a6.13,6.13,0,0,1,1.12-.69l3.16-1.75c2.63-1.48,6.31-3.55,10.19-5.95s7.41-4.73,9.92-6.39l3-2a5.42,5.42,0,0,1,1.14-.67,6.3,6.3,0,0,1-1,.87c-.68.52-1.58,1.26-2.87,2.15-2.46,1.76-5.91,4.13-9.86,6.54s-7.6,4.42-10.3,5.81l-3.15,1.58A5.29,5.29,0,0,1,155.56,479.38Z" fill="#e0e0e0"/>
<path d="M129.14,463.22a4.44,4.44,0,0,1,1.1.52c.7.36,1.68.91,2.89,1.57,2.43,1.38,5.76,3.32,9.47,5.49s7,4.18,9.32,5.67c1.18.72,2.14,1.34,2.79,1.76a4.78,4.78,0,0,1,1,.73,5,5,0,0,1-1.1-.52c-.69-.36-1.69-.92-2.9-1.58-2.43-1.37-5.76-3.31-9.47-5.49s-7-4.18-9.34-5.66c-1.18-.74-2.14-1.34-2.79-1.77A4.82,4.82,0,0,1,129.14,463.22Z" fill="#e0e0e0"/>
<path d="M123.89,504a8.67,8.67,0,0,1,1.4.69l3.72,2c3.16,1.75,7.42,4.21,12.13,7s9,5.26,12.06,7.11l3.61,2.22a7.93,7.93,0,0,1,1.28.89,8.32,8.32,0,0,1-1.41-.68l-3.7-2.05c-3.16-1.75-7.42-4.21-12.15-7s-9-5.27-12-7.11l-3.61-2.21A6.78,6.78,0,0,1,123.89,504Z" fill="#e0e0e0"/>
<path d="M157.41,523.2a8.86,8.86,0,0,1,1.39-.93l3.86-2.36c3.28-2,7.79-4.73,12.62-7.89s9.26-6.18,12.41-8.38l3.73-2.58a9.81,9.81,0,0,1,1.4-.9,8.22,8.22,0,0,1-1.26,1.09c-.84.66-2.07,1.57-3.61,2.74-3.16,2.29-7.42,5.35-12.34,8.54s-9.46,5.91-12.79,7.88c-1.58,1-3,1.71-4,2.2A9.36,9.36,0,0,1,157.41,523.2Z" fill="#e0e0e0"/>
<polygon points="181.38 550.73 137.25 550.73 151.65 659.76 166.97 659.76 181.38 550.73" fill="#e0e0e0"/>
<path d="M139.54,564.14a.61.61,0,0,0,.23.38,2.93,2.93,0,0,0,1.07.77,5.34,5.34,0,0,0,4.66-.58c1.78-1,3.33-2.91,5.72-3.76a12.45,12.45,0,0,1,8.11.16,34.72,34.72,0,0,1,7.56,3.66,54.18,54.18,0,0,0,6.15,3.3,16.93,16.93,0,0,0,4.53,1.3,7.77,7.77,0,0,0,1.27.1h.46a22.93,22.93,0,0,1-6-1.88,57.18,57.18,0,0,1-6-3.39,33.44,33.44,0,0,0-7.68-3.78,13,13,0,0,0-8.57-.1,11.61,11.61,0,0,0-3.3,2,25,25,0,0,1-2.52,2,5.14,5.14,0,0,1-4.29.74A4.26,4.26,0,0,1,139.54,564.14Z" fill="#f5f5f5"/>
<path d="M141.14,584.22a13.66,13.66,0,0,1,1.05-1.17,9.71,9.71,0,0,1,3.53-2.24,15.82,15.82,0,0,1,6.14-.93,63.83,63.83,0,0,1,7.66,1.06,26.11,26.11,0,0,0,7.89.31,20.83,20.83,0,0,0,6.18-1.76,19.63,19.63,0,0,0,3.72-2.21,5.23,5.23,0,0,0,1.19-1.06,44.81,44.81,0,0,1-5.19,2.81,23.14,23.14,0,0,1-6.06,1.58,27.8,27.8,0,0,1-7.67-.38,58,58,0,0,0-7.77-1,15.81,15.81,0,0,0-6.31,1.12,9.27,9.27,0,0,0-3.54,2.52,6,6,0,0,0-.66,1A1.31,1.31,0,0,0,141.14,584.22Z" fill="#f5f5f5"/>
<path d="M176.46,595a3.88,3.88,0,0,0-1.21-.63,13.13,13.13,0,0,0-3.66-.77,22.87,22.87,0,0,0-5.54.31c-2.05.33-4.26.9-6.58,1.39a27.42,27.42,0,0,1-6.57.74,14.16,14.16,0,0,1-5.21-1.12,11.84,11.84,0,0,1-4-3,3.49,3.49,0,0,0,.74,1.15,9.35,9.35,0,0,0,3,2.26,14.2,14.2,0,0,0,5.39,1.32,26.51,26.51,0,0,0,6.76-.69c2.35-.51,4.54-1.09,6.54-1.45a25.1,25.1,0,0,1,5.4-.46A21,21,0,0,1,176.46,595Z" fill="#f5f5f5"/>
<path d="M145,610.09a7.1,7.1,0,0,1,4.29-.44,20.48,20.48,0,0,1,4.48,1.67,16.84,16.84,0,0,0,5.82,1.57,17.32,17.32,0,0,0,10.52-2.41,14,14,0,0,0,2.64-2,4.06,4.06,0,0,0,.77-.93A36.45,36.45,0,0,1,169.9,610a18.14,18.14,0,0,1-10.24,2.18c-4.18-.24-7.38-2.73-10.28-3.06a6.5,6.5,0,0,0-3.33.28A2.26,2.26,0,0,0,145,610.09Z" fill="#f5f5f5"/>
<path d="M147.5,631a8.78,8.78,0,0,0,3.68-.74c2.22-.74,5-2.43,8.17-3.71a13,13,0,0,1,4.73-1,8.8,8.8,0,0,1,3.77.85,8.93,8.93,0,0,1,2.73,2.35,2,2,0,0,0-.43-.93,6,6,0,0,0-2.06-1.86,8.82,8.82,0,0,0-4-1.09,13.73,13.73,0,0,0-5,1c-3.32,1.33-6,3.08-8.1,3.91S147.49,630.89,147.5,631Z" fill="#f5f5f5"/>
<path d="M149.65,640.75a10.23,10.23,0,0,0,2.8.92,53.21,53.21,0,0,0,7,1.16,49.23,49.23,0,0,0,7.08.21,9.94,9.94,0,0,0,2.92-.35c0-.22-4.47,0-9.92-.57S149.73,640.55,149.65,640.75Z" fill="#f5f5f5"/>
<rect x="462.63" y="40.41" width="76.74" height="20.3" fill="#e0e0e0"/>
<path d="M562.1,40.41a2.16,2.16,0,0,1,0-.36V35c0-3.5-.08-8.53-.12-14.89l.23.24-76.74.16c.18-.18-.39.39.38-.4h0v20.3l-.38-.38,54.58.18,16.14.11h.17l-16,.11-55,.17H485V20.14h0l.39-.39,76.74.16h.24v.23c0,6.42-.1,11.5-.13,15v5A1.36,1.36,0,0,1,562.1,40.41Z" fill="#e0e0e0"/>
<rect x="312.56" y="243.36" width="76.74" height="20.3" fill="#e0e0e0"/>
<rect x="367.74" y="201.67" width="76.74" height="20.3" fill="#fafafa"/>
<path d="M412,243.36V238c0-3.5-.08-8.53-.14-14.89l.23.24-76.74.15.4-.39h0v20.27l-.38-.38,54.69.17,16.15.11h.17l-16.05.11-55,.18H335V222.87h0l.4-.39,76.74.15h.25v.24c0,6.4-.11,11.5-.14,15v4.95A.7.7,0,0,1,412,243.36Z" fill="#e0e0e0"/>
<path d="M244.76,123.53a2.41,2.41,0,0,1,0-.38v-5c0-3.51,0-8.55-.12-14.9l.23.24-76.74.14.38-.38h0v20.27l-.38-.39,54.69.17,16.14.11h0l-16,.43L168,124h-.39V103.3h0c.77-.79.22-.22.39-.39l76.74.16H245v.23c0,6.41-.09,11.5-.13,15v4.93C244.84,123.36,244.8,123.44,244.76,123.53Z" fill="#e0e0e0"/>
<path d="M255.16,103.3V97.77c0-3.57,0-8.6-.14-14.78l.26.28-46.1.11c-.35.35.47-.47.39-.38h0v20.27l-.38-.38,33,.18,9.6.11h3.52a5.89,5.89,0,0,1-.84,0H252l-9.47.11-33.23.17h-.37V83h0l.4-.4,46.11.11h.28v.27c0,6.31-.11,11.34-.14,15v4A8.26,8.26,0,0,1,255.16,103.3Z" fill="#e0e0e0"/>
<path d="M841.13,199.9a1.61,1.61,0,0,1,0-.31v-4.28c0-3,0-7.27-.11-12.62l.2.21L776,183l.33-.33h0v17.23l-.31-.32,46.48.14,13.73.1h.15l-13.64.09-46.72.15h-.33v-17.4h0l.33-.33,65.24.12h.2v.21c0,5.46-.09,9.78-.11,12.79v4.2A2.2,2.2,0,0,1,841.13,199.9Z" fill="#e0e0e0"/>
<path d="M850,182.65a1.93,1.93,0,0,1,0-.34V178c0-3-.08-7.31-.13-12.62l.24.23-39.2.1.33-.33h0v17.22l-.31-.31,28,.14,8.17.09h2.21a5.08,5.08,0,0,1,.78,0,2.81,2.81,0,0,1-.71,0h-2.14l-8.09.1-28.25.14h-.34V165.44h0s.64-.63.35-.33l39.2.09h.24v.24c0,5.31-.1,9.63-.13,12.62v3.4A9.68,9.68,0,0,1,850,182.65Z" fill="#e0e0e0"/>
<path d="M812.88,657.66c0,.22-152.88.41-341.43.41S130,657.88,130,657.66s152.85-.41,341.46-.41S812.88,657.44,812.88,657.66Z" fill="#2e3135"/>
<polygon points="692.63 632.17 560.4 632.17 560.4 79.72 708.06 79.72 692.63 632.17" fill="#f5f5f5"/>
<polyline points="685.88 95.92 685.88 632.17 773.52 657.47 773.82 95.92 685.88 95.92" fill="#3f4347"/>
<path d="M696.69,355.89c.17,4.2-1.44,7.68-3.6,7.76s-4.05-3.25-4.23-7.44,1.45-7.67,3.6-7.76S696.51,351.69,696.69,355.89Z" fill="#fafafa"/>
<path d="M692.65,352.77l17.25,2.3a1.94,1.94,0,0,1,1.66,1.83h0a1.91,1.91,0,0,1-1.83,2,1.88,1.88,0,0,1-.41,0l-16.55-2.81Z" fill="#fafafa"/>
<polygon points="544.29 71.57 544.29 90.1 544.29 95.92 544.29 657.47 573.05 657.47 573.05 95.92 741.88 95.92 741.88 657.47 773.52 657.47 773.52 95.92 773.52 90.1 773.52 71.57 544.29 71.57" fill="#3f4347"/>
<rect x="558.66" y="95.92" width="14.39" height="561.55" fill="#2e3135"/>
<rect x="759.43" y="71.57" width="14.39" height="585.91" fill="#2e3135"/>
<rect x="641.08" y="37.38" width="47.24" height="10.55" fill="#2e3135"/>
<path d="M742,657.47h0a.59.59,0,0,0,.14-.23,8,8,0,0,0,.21-1.17c.12-1.06.25-2.62.34-4.73.22-4.11.4-10.18.54-18,.3-15.63.47-38.25.54-66.25.15-55.88,0-133.11-.51-218.39-.66-104.8-1.23-197.38-1.58-252.91l.24.23-41.28-.11h0l41.28-.11h.24v.24c.58,55.49,1.39,148.1,1.92,252.9.43,85.29.57,162.47.27,218.42-.14,27.94-.41,50.56-.79,66.25q-.3,11.83-.69,18c-.14,2-.29,3.61-.43,4.65a8.12,8.12,0,0,1-.25,1.19.53.53,0,0,1-.17.25Z" fill="#2e3135"/>
<path d="M44.84,360.12s1.11-2.51-2.3-6.91a20.4,20.4,0,0,0-8.7-6.38l-5.37-2.09S27.73,354.91,44.84,360.12Z" fill="#0071f2" data-primary="true"/>
<path d="M44.84,360.12s1.11-2.51-2.3-6.91a20.4,20.4,0,0,0-8.7-6.38l-5.37-2.09S27.73,354.91,44.84,360.12Z" opacity="0.2"/>
<path d="M110.91,506.87l-1,8.3a2.65,2.65,0,0,0,.63,2c3,3.49,13.87,16.6,9.16,20.46,0,0-4,2-14.88-10.91a33.64,33.64,0,0,0-7-5.74,51.13,51.13,0,0,1-6-4l-1.25-1a3.27,3.27,0,0,1-.44-4.68l9.88-11.45Z" fill="#f9b499"/>
<path d="M113.77,508.9,96.42,497.5l8.92-29.26-11.4-1-6.45,6.95s-14,9.25-21.86.16L103.86,436l16,3s27.67-.48,16.76,21.34Z" fill="#2f2e41" data-secondary="true"/>
<path d="M113.77,508.9,96.42,497.5l8.92-29.26-11.4-1-6.45,6.95s-14,9.25-21.86.16L103.86,436l16,3s27.67-.48,16.76,21.34Z" opacity="0.2"/>
<path d="M40.13,457.45l-10.68-.08A13.47,13.47,0,0,1,16.14,445.6c0-.22-.05-.45-.07-.67l-.63-9.16a26.62,26.62,0,0,1,1.69-11.38,192.22,192.22,0,0,1,13.11-26.56l34.93,5.93Z" fill="#3f4347"/>
<path d="M35.91,453.85a108.74,108.74,0,0,0,3.87-12.37,46,46,0,0,0,1.67-12.88,4.53,4.53,0,0,0-4.57-4.17c-2.14-.24-4.29-.48-6.45-.66-4.3-.38-8.62-.68-12.94-.75,4.31.28,8.61.67,12.91,1.13,2.14.24,4.29.47,6.43.73A4.06,4.06,0,0,1,41,428.63c.25,4.29-.63,8.58-1.54,12.76s-2.17,8.36-3.5,12.46Z" fill="#2e3135"/>
<path d="M31,420.62a139.55,139.55,0,0,0,6.62-15.46A140.36,140.36,0,0,0,31,420.62Z" fill="#2e3135"/>
<path d="M19.05,386.9s18.35,18.85,32.24,28.27c0,0,.49,8.93-8.44,17.36,0,0-6.5,5.74-3.72,11.16a8,8,0,0,0,1.74,2.23l24.92-10.68,13.27-5.69s25.29-13.39,35.21-7.93c0,0,11.9-6.45,15.38-15.87,0,0,3.47-6.45,7.93-9.43l20.33-22.81s8.93-6.45-4-27.28L135.6,367.06a20.18,20.18,0,0,0-8.43,7.94,35.41,35.41,0,0,0-8.44,10.91s-3.47-2-9.42,6.45l-6-.5-.1-5.69s-10.81.73-16.51-12.41c0,0-2.55-1.65-6.45-7.44,0,0-20.86-5.39-17.46,7.53a8.41,8.41,0,0,0,.74,1.85c.64,1.24,1.77,3.86.85,5.57-.7,1.28-2.54,2.05-6.61,1.33a35.86,35.86,0,0,1-4.55-1.16L41.37,376l3.47-15.87s-12.9-5.46-16.37-15.38C28.47,344.74,14.09,379.46,19.05,386.9Z" fill="#0071f2" data-primary="true"/>
<path d="M250.55,490.63s-33.62-3.05-33.62,28.19l-1.49,82.83,1,21.32s2.48,7.94,19.34,6.45l-.48-113.23a32,32,0,0,1,4.14-16.07C241.78,496,245.33,492.07,250.55,490.63Z" fill="#0071f2" data-primary="true"/>
<path d="M250.55,490.63s-33.62-3.05-33.62,28.19l-1.49,82.83,1,21.32s2.48,7.94,19.34,6.45l-.48-113.23a32,32,0,0,1,4.14-16.07C241.78,496,245.33,492.07,250.55,490.63Z" fill="#fff" opacity="0.3"/>
<path d="M265.53,490.06s-24-1.41-33.89,7.68a12.12,12.12,0,0,0-3.8,8.94v83.56l1.26,23.48a28.46,28.46,0,0,0,3,11.37c1.06,2.1,2.34,3.94,3.71,4.33l12.09.38L250.66,498Z" fill="#3f4347"/>
<path d="M264.54,490.06s35.71-3,36.7,25.79c0,0,5.95,39.18,5.95,75.88v24.79s-.47,12-18.3,12.39h-1c-18.84,0-38.68,1-38.68,1s-9.42,1-9.92-16.86l-2-53.06,1-50.09S237.76,490.55,264.54,490.06Z" fill="#0071f2" data-primary="true"/>
<path d="M264.54,490.06s35.71-3,36.7,25.79c0,0,5.95,39.18,5.95,75.88v24.79s-.47,12-18.3,12.39h-1c-18.84,0-38.68,1-38.68,1s-9.42,1-9.92-16.86l-2-53.06,1-50.09S237.76,490.55,264.54,490.06Z" fill="#fff" opacity="0.3"/>
<path d="M263.55,500a13.13,13.13,0,0,0-4.55,5.45c-5.19,10.83-3.51,23.78-3.65,35.45.27,18.6.87,38.76,1.6,57.35.21,4.77.4,9.55.65,14.33-.18-28.75-1.32-60.89-1.6-89.61.09-7.06,1.39-18.59,7.55-23Z" fill="#fff" opacity="0.3"/>
<path d="M273.75,629.11l4.66-.14s1.51-7.49-10.4-9.47c0,0-25.45-4.29-8.51,10l1.07-.27-.49,2.66,2.48.49.5,2.48s-3,1-1,5c0,0,1.49,2,5.16-.94l6.44-.49Z" fill="#3f4347"/>
<circle cx="266.28" cy="637.6" r="5.7" fill="#3f4347"/>
<circle cx="295.04" cy="636.11" r="5.7" fill="#3f4347"/>
<path d="M223.38,616.52l9.35,12.86s-2.9,3.51-12.82,1v-2.48s-3.47-.49-3.47-5l-.26-6.65Z" fill="#3f4347"/>
<path d="M230,630l-.16,7.14a.73.73,0,0,1-.73.72h-7.47a.74.74,0,0,1-.74-.74v-7.69Z" fill="#3f4347"/>
<path d="M224.72,636.36h1.78a2.83,2.83,0,0,1,2.83,2.83v3.62a0,0,0,0,1,0,0h-7.44a0,0,0,0,1,0,0v-3.62a2.83,2.83,0,0,1,2.83-2.83Z" transform="translate(451.22 1279.17) rotate(-180)" fill="#3f4347"/>
<path d="M307.19,614l-.49,10.42s0,6-13.84,6.87a1.72,1.72,0,0,1-1.79-1.43h0A1.73,1.73,0,0,1,292.2,628c2.83-1,9.3-3.75,12.22-9.19a5.9,5.9,0,0,0,.63-2.83C305.05,615.12,305.41,614,307.19,614Z" fill="#3f4347"/>
<rect x="265.53" y="507.42" width="27.77" height="8.93" transform="translate(558.84 1023.76) rotate(-180)" fill="#3f4347"/>
<rect x="282.65" y="399.05" width="4.96" height="111.59" transform="translate(570.25 909.69) rotate(-180)" fill="#3f4347"/>
<rect x="270.74" y="399.55" width="4.96" height="111.59" transform="translate(546.44 910.68) rotate(-180)" fill="#3f4347"/>
<path d="M284.38,264.9s-.49-19.84,10.91-19.84l28.27,1.49s10.42-.15,9.67,9.1l-1,10.91-5.46.07,1.54-11.86a1.66,1.66,0,0,0-1.58-1.85L295,251.6a2.72,2.72,0,0,0-2.76,2.06,96.74,96.74,0,0,0-2.13,11.48Z" fill="#ccc"/>
<path d="M428.59,631.79s3.58,8.54-1.38,11c0,0-14.87,2-27.27,1.49,0,0-10.66,1.15-5.58-11.33Z" fill="#2f2e41" data-secondary="true"/>
<path d="M353.32,629.91l.49,11.91-14.87.49s.49-6.44-4-2.48c0,0-6.45,5.46-29.26,3.48,0,0-20.78.17-15.11-8.1l46.85-9.76Z" fill="#2f2e41" data-secondary="true"/>
<path d="M411.34,357.64s5,45.13,8.43,88.77l9.43,146.8L394,597.68,369.68,436.49s-6.94,15.38-9.91,62.49l-9.92,103.66-35.71-8.93,6.94-147.3s2.48-71.41,5-85.3l3.47-7.44,53.56-15.37Z" fill="#0071f2" data-primary="true"/>
<g opacity="0.2">
<path d="M392.5,379c3,5.48,7.69,10.68,13.39,13.4-5-3.95-9.17-8.63-13.39-13.4Z"/>
</g>
<g opacity="0.2">
<path d="M369.68,436.49c-3-11.54-6.4-23.46-8.43-35.21a91.57,91.57,0,0,0,2.88,17.93,133.71,133.71,0,0,0,5.55,17.28Z"/>
</g>
<g opacity="0.2">
<path d="M357.78,388.88c-.94-9.91-2.43-19.78-2.48-29.75a60.55,60.55,0,0,0-.07,15,100.9,100.9,0,0,0,2.55,14.77Z"/>
</g>
<g opacity="0.2">
<path d="M345.88,359.13c-1.34,7.89.1,18.27,8,22.24a13.45,13.45,0,0,0,3.42,1.07,17.48,17.48,0,0,1-3.18-1.5c-7.2-4.53-8.22-14-8.23-21.81Z"/>
</g>
<path d="M392,215.3s.5-2.48,3.47.5c0,0,7.94,5,5,7.93l22.82,19.35s10.91,6.94,9.92,27.27c0,0,4,48.11-1.49,61,0,0-6.45,11.91-15.87,15.87,0,0-.5,6.45-4.47,10.42,0,0-19.34-1-26.78-5.46l-59.51-21.82,6.94-63s1.49-28.27,10.91-33.23c0,0,13.39-2.48,17.36-6,0,0,6.81-7,9.86-7.7Z" fill="#2f2e41" data-secondary="true"/>
<path d="M409.25,298s-2.33-1.6-.36-5.06a9.07,9.07,0,0,1,1.57-2l7.94-7.7,3.4,4.51Z" fill="#0071f2" data-primary="true"/>
<path d="M409.25,298s-2.33-1.6-.36-5.06a9.07,9.07,0,0,1,1.57-2l7.94-7.7,3.4,4.51Z" opacity="0.2"/>
<path d="M515,592.72,526.4,623l-2.48,7.44s2,18.85,12.4,3.47l4.47-17.36-9.87-31.25Z" fill="#f9b499"/>
<path d="M511,627.69s8.43,13.63-1,17.6c0,0-3,2-13.89,2,0,0-24.12,9.82-34.13,2.71a2.63,2.63,0,0,1,.2-4.41c2.32-1.36,6.14-3.49,11.61-6.23l25.3-11.9Z" fill="#0071f2" data-primary="true"/>
<path d="M509.05,603.63s-.4,17.76,2,24.06a3.16,3.16,0,0,1-1,3.61c-4,3.08-14.31,8.77-36.16,8,0,0,17.86-8.43,17.36-18.35V601.65Z" fill="#f9b499"/>
<path d="M512,606.1l-4.43-249.45-36,.21s-10.65,51.37-6.68,114.35c0,0,9.42,111.09,15.37,132.42,0,0,1,4.27,29.74,4.46A2,2,0,0,0,512,606.1Z" fill="#2f2e41" data-secondary="true"/>
<path d="M512,606.1l-4.43-249.45-36,.21s-10.65,51.37-6.68,114.35c0,0,9.42,111.09,15.37,132.42,0,0,1,4.27,29.74,4.46A2,2,0,0,0,512,606.1Z" opacity="0.2"/>
<path d="M546.24,423.1l-27.77,85.31L533.66,581a1.64,1.64,0,0,1-.43,1.49c-2.6,2.64-13,12.74-24.13,16.27a1.64,1.64,0,0,1-2-1.05l-26.28-78.85s-3.47-23.31,0-42.65l9.42-61.5Z" fill="#2f2e41" data-secondary="true"/>
<path d="M391,198.44s-.5,9.92,1,16.86c0,0-12.4,13.39-21.32,17.36l-.5-17.36,17.36-17.36Z" fill="#f9b499"/>
<path d="M370.18,215.3l.11,7.15s12.5-2.18,14.38-11.36Z" fill="#f7a48b"/>
<path d="M400.82,223.16c-7.44,5.88-15.78,12.88-23,19l.72.08c-1.85-2.47-5.61-7.43-7.49-9.88l-.28-.37-.34.3c-1.59,1.38-4.79,4.16-6.37,5.55l.48.12q-1-2.46-2.1-4.91c-.52-1.22-1.61-3.68-2.15-4.89,1.17,3.26,2.46,6.8,3.68,10l.15.39c.19-.17,3.34-2.71,3.61-2.94L371,233l-.63-.07c2,2.7,5.69,7.7,7.71,10.38,7.35-6.33,15.67-13.57,22.78-20.14Z" opacity="0.2"/>
<path d="M359.77,300.61q6.45-33.81,10.91-68-6.48,33.79-10.91,68Z" opacity="0.2"/>
<path d="M424.43,340.66a33.71,33.71,0,0,0-15-22.56,34.64,34.64,0,0,0-7.93-3.62,12.63,12.63,0,0,0-11.72,2.19,11.92,11.92,0,0,0-3.77,5.76,12.24,12.24,0,0,1,4.07-5.38,12.68,12.68,0,0,1,12.75-1.13c10.78,3.93,18.73,13.74,21.56,24.74Z" opacity="0.2"/>
<path d="M408.86,261.92c-3.58,3.63-5.39,8.65-6.91,13.42-2.94,10.31-3.51,21.24-3.29,31.92L399,314l1-.07c-.29-4-.56-9.52-.57-13.48a97.87,97.87,0,0,1,2.85-25.06c1.43-4.79,3.14-9.81,6.64-13.5Z" opacity="0.2"/>
<path d="M352.33,269.36s11.4,4,16.86,39.68c0,0,5,22.31,0,43.64,0,0-63,8.93-105.14,6.45,0,0-15.38-8.93-29.26-32.24,0,0,5.45-52.57,27.77-61C262.56,265.89,309.18,261.43,352.33,269.36Z" fill="#e1e1e2"/>
<path d="M264.54,271.84c1.3,7.17,1.44,14.51,1.74,21.77.57,18.23.06,36.45-1.15,54.64-.25,3.63-.57,7.26-1.08,10.88,2-10.78,2.54-21.77,3.06-32.69.21-5.47.47-10.95.37-16.43-.07-9.13-.37-18.26-1.23-27.35a77.35,77.35,0,0,0-1.71-10.82Z" fill="#ccc"/>
<path d="M262.56,265.89c-3.4.79-6.17,8.32-7.21,11.41-2.91,8.76-4.21,17.94-5.69,27q-1.08,6.81-2,13.65c1.73-7.74,3.79-19.14,5.25-27.07,1.12-5.41,4.39-23,9.63-25Z" fill="#ccc"/>
<path d="M299,341.62a5.74,5.74,0,0,1-5.37-4.82c-1.18-7.4-2.95-21.39-1.51-31.87a2.16,2.16,0,0,1,2.13-1.85h47.88a5.75,5.75,0,0,1,5.63,4.65h0c1.22,6.37,3.2,18.46,2.66,27.83a5.7,5.7,0,0,1-5.49,5.4c-7.47.3-23.14.87-35.45.87C305.49,341.83,301.86,341.77,299,341.62Zm43.13-37.54H294.23a1.15,1.15,0,0,0-1.15,1c-1.41,10.35.34,24.23,1.51,31.58a4.74,4.74,0,0,0,4.44,4c11.75.59,36-.26,45.84-.66a4.72,4.72,0,0,0,4.54-4.46c.53-9.27-1.43-21.27-2.65-27.6h0A4.74,4.74,0,0,0,342.11,304.08Z" fill="#ccc"/>
<path d="M345.13,304.32a105.82,105.82,0,0,1-10.05,13.48,51.42,51.42,0,0,1-6,5.83,9.94,9.94,0,0,1-7.36,2.71,10,10,0,0,1-5.56-2.17,161,161,0,0,1-20.89-17.61A118.48,118.48,0,0,0,317,325.86a10.64,10.64,0,0,0,12.74-1.49c6.43-5.55,11.36-12.66,15.42-20.05Z" fill="#ccc"/>
<rect x="401.92" y="603.13" width="17.36" height="12.4" transform="translate(821.2 1218.67) rotate(-180)" fill="#f9b499"/>
<path d="M426.22,628.43a17.69,17.69,0,0,1-3.47-9.43s6.45-10.41-12.15-9.67c0,0-11.16-3.22-11.16,10.17,0,0,0,5-2,7.94S393,631.9,395,634.87c0,0,22.51,2.13,31.76.09a2.48,2.48,0,0,0,1.85-3.17A7.37,7.37,0,0,0,426.22,628.43Z" fill="#0071f2" data-primary="true"/>
<path d="M347.86,609.09s.5,9.91-7.44,8.92l-8.92-6.94a11.22,11.22,0,0,0-5-1.49l.49-5.45Z" fill="#f9b499"/>
<path d="M353.32,629.91s.24-20.56-6.33-16.23c0,0,.38,4.33-6.57,4.33,0,0-10.41-8.92-13.88-8.43,0,0-4-1-7,6.45,0,0-8.92,13.39-18.35,13.88-7.39.39-9.9,3.83-10.64,5.3a.58.58,0,0,0,.39.82c3.6.86,21.41,4.55,40-1.65C331,634.38,344.39,628.92,353.32,629.91Z" fill="#0071f2" data-primary="true"/>
<polygon points="289.59 387.64 289.59 389.63 289.59 394.09 289.59 402.52 280.66 402.52 280.66 394.09 277.19 394.09 277.19 403.02 268.26 403.02 268.26 394.09 268.26 390.12 268.26 387.64 289.59 387.64" fill="#3f4347"/>
<path d="M98.4,382.93l.5,15.38s-7.44,4-16.37-5.46l-4.46-9.92s4,0,8.43-8.92V362.6l8.92,5.45Z" fill="#f9b499"/>
<path d="M98.4,382.93l.25,8.68S87.77,387,89.86,376.79Z" fill="#f7a48b"/>
<path d="M98.9,398.31s.3,7-2.44,10.52a4.11,4.11,0,0,1-5.56.8c-2.48-1.67-6.2-5.93-8.37-16.78C82.53,392.85,90.22,401.53,98.9,398.31Z" fill="#fff"/>
<path d="M114.27,421.62s9.42,3,5,23.31l-6.06,27.49a1.42,1.42,0,0,1-2,1c-3.8-1.69-13.92-5.12-23.73.77l1-16.37S69.14,484.6,48.31,471.71c0,0-11.41-5.95-7.44-25.79l38.19-16.37S102.86,416.16,114.27,421.62Z" fill="#2f2e41" data-secondary="true"/>
<path d="M88.48,457.82A76.2,76.2,0,0,0,101.87,442a174.72,174.72,0,0,0-13.39,15.87Z" opacity="0.2"/>
<path d="M109.31,472.43v4.24s24.3,6.44,21.82,15.87L92.94,493s-7.43,1-5.45-8.61l2.05-11.35A23.7,23.7,0,0,1,109.31,472.43Z" fill="#f9b499"/>
<path d="M41.37,376a44.48,44.48,0,0,0-1.49,13.39A44.8,44.8,0,0,0,41.37,376Z" opacity="0.2"/>
<path d="M40.87,445.92l-.6,3.08s14-4,25.52-13.76a44,44,0,0,0,10.94-13.45,23.86,23.86,0,0,0,1-19.41,73.42,73.42,0,0,0-13.29-21.11c-.7,1.28-2.54,2.05-6.61,1.33,2.28,2.83,12.54,18,9.55,31.71a19.12,19.12,0,0,1-2.48,6c-3,4.86-12.57,16.74-25.76,23.36A8,8,0,0,0,40.87,445.92Z" fill="#3f4347"/>
<g opacity="0.2">
<path d="M81,399.79a126,126,0,0,0-13.39-18.35A126.17,126.17,0,0,0,81,399.79Z"/>
<path d="M110.8,419.63a18.65,18.65,0,0,0,4.46-7.44,18.72,18.72,0,0,0-4.46,7.44Z"/>
<path d="M103.36,391.86a8.5,8.5,0,0,0-2,5.46,8.52,8.52,0,0,0,2-5.46Z"/>
</g>
<path d="M82.07,369.77s-6.61-3.13-10.25-2.2a2.56,2.56,0,0,0-1.76,3.34,28.41,28.41,0,0,0,8,12s3.47.5,8.43-8.92A20.73,20.73,0,0,1,82.07,369.77Z" opacity="0.2"/>
<path d="M39.13,356.9l4.22-19.59s1-4.47,2-1c0,0,1.49,7.44,4.47-.49a3.43,3.43,0,0,0,3-4s3-2.48.5-5c0,0,1-2-2-4l-1-.7a10.58,10.58,0,0,0-6.77-1.78,7.92,7.92,0,0,0-7.06,5.46l-7.94,18.84S30.7,351.94,39.13,356.9Z" fill="#f9b499"/>
<path d="M44.84,323.91a38.78,38.78,0,0,0,8.43,3,40.06,40.06,0,0,0-8.43-3Z" fill="#f7a48b"/>
<path d="M48.31,327.88a17.6,17.6,0,0,0,4.46,4,17.6,17.6,0,0,0-4.46-4Z" fill="#f7a48b"/>
<path d="M45.83,329.87a25,25,0,0,0,4,5.95,25.33,25.33,0,0,0-4-5.95Z" fill="#f7a48b"/>
<path d="M160.07,360s19.67-26.69,16.69-31.65c0,0,.5-3.47-.5-4,0,0,1-4.46-1-5.45,0,0,.5-5-3-4,0,0-8.93,1-7,5.45,0,0-4.41.74-4.69,3.79a3.16,3.16,0,0,0,.67,2.19,6,6,0,0,1,1,5.93L154,346.23S158.75,354,160.07,360Z" fill="#f9b499"/>
<path d="M171.8,320a10.48,10.48,0,0,0-6.45.49,10.48,10.48,0,0,0,6.45-.49Z" fill="#f7a48b"/>
<path d="M175.27,330.36c-1.3.81-3.22,2.23-4.76,1.63-.51-.26-.72-1-.84-1.61a2.6,2.6,0,0,1-1.41-.12c-1-.47-1-1.83-.94-2.81l0-.45c-1-.16-2.24-.68-1.62-1.91l-.08.11c1.43-1.54,2.85-3.1,4.17-4.76-1.66,1.32-3.22,2.74-4.76,4.17a2,2,0,0,0-.06,2.2,2.93,2.93,0,0,0,1.75,1.05l-.39-.53c-.34,2.11.55,4.29,3,4l-.5-.33c1,3.62,4.81,1.19,6.38-.61Z" fill="#f7a48b"/>
<path d="M174.28,326.89a10.06,10.06,0,0,0-5,4,10.16,10.16,0,0,0,5-4Z" fill="#f7a48b"/>
<path d="M173.29,324.41a12.59,12.59,0,0,0-6.45,3,12.67,12.67,0,0,0,6.45-3Z" fill="#f7a48b"/>
<path d="M525.14,241.81l15.15,8.7s25.79,11.91,26.29,37.2c0,0,1.48,23.81,9.42,37.2,0,0,12,15.84,5.16,30.88a23.38,23.38,0,0,1-10.24,10.75c-9.82,5.32-37.78,20.15-57.91,27.8,0,0-12.4-25.79-13.39-32.24l-19.34-16.86-13.89,6.45-23.31-9.43a14.84,14.84,0,0,1-7.93-8.43s-8.43-15.37-19.34-26.78l-6.7-9.17s17.11-15.13,20.09-20.09a66.58,66.58,0,0,1,16.86,28.77l.25.31a6.15,6.15,0,0,0,10.35-1.9l9.24-24.2,6.94-19.34a14.69,14.69,0,0,1,6.45-8.93l20.4-13.24Z" fill="#0071f2" data-primary="true"/>
<path d="M483.26,264.4c-3.61,7.28-6.95,14.69-10.22,22.13-2.45,5.45-2.79,12.67.17,18a14.56,14.56,0,0,0,4.1,4.52,15.28,15.28,0,0,1-3.67-4.75c-2.51-5.17-2.05-12.25.31-17.39,3.24-7.45,6.41-14.91,9.31-22.5Z" opacity="0.2"/>
<path d="M452.51,322.92a37.57,37.57,0,0,0,2-15.06,117.35,117.35,0,0,0-2,15.06Z" opacity="0.2"/>
<path d="M446.06,329.87c2.45-6.46,4.09-15.11,2-21.83.73,7.23-.83,14.71-2,21.83Z" opacity="0.2"/>
<path d="M428.58,279l-4.34-7.11s-2.48-6.94-8.93-5.46c0,0-6.45,1.49-10.41-.49,0,0-9.43-4-5.95,3h-4.13a4.64,4.64,0,0,1-3.16-1.24l-5.44-5.08a1.31,1.31,0,0,0-1.48-.21h0a1.29,1.29,0,0,0-.58,1.75l1.39,2.8-6.5-3.9a1.57,1.57,0,0,0-1.79.12h0a1.58,1.58,0,0,0,.07,2.51l3.62,2.58a.5.5,0,0,1-.36.89l-6.94-1a1.3,1.3,0,0,0-1.49,1.29h0a1.33,1.33,0,0,0,.94,1.25l6,1.78a.59.59,0,0,1,.09,1.1l-1.53.76a1.08,1.08,0,0,0-.41,1.56h0a1.08,1.08,0,0,0,.89.47h16.29s6,2.8,15.9,2.52a2,2,0,0,1,1.59.7l7.56,8.93S425,283.07,428.58,279Z" fill="#f9b499"/>
<path d="M419.28,268.86a100.09,100.09,0,0,1-20.33,0,100.82,100.82,0,0,1,20.33,0Z" fill="#f7a48b"/>
<path d="M399,273.33c-5.07.54-11.17-1.54-13.4-6.45,3.38,4,8.44,5.53,13.4,6.45Z" fill="#f7a48b"/>
<path d="M394.48,276.3a40.76,40.76,0,0,1-10.91-6.94,40.76,40.76,0,0,1,10.91,6.94Z" fill="#f7a48b"/>
<path d="M386.05,275.81a14.62,14.62,0,0,1-6.9-3.4,14.53,14.53,0,0,1,6.9,3.4Z" fill="#f7a48b"/>
<path d="M542.27,268.37c-7.67,11.88-11.73,28.24-4.29,41.16,2.9,4.82,5.94,9.64,7.54,15.07.27,1,.5,2.26.82,3.3a19.78,19.78,0,0,0,4.37,7.92,21.61,21.61,0,0,1-4.36-10.24,29.91,29.91,0,0,0-2.14-6.53,90,90,0,0,0-5.4-10,20.38,20.38,0,0,1-1-2c-5.77-12.51-1.89-27.18,4.48-38.71Z" opacity="0.2"/>
<path d="M571.54,339.29c-4.34-2.53-10.1-2.61-14.88-1.49.63.06,1.26.07,1.89.09a63.7,63.7,0,0,1,13,1.4Z" opacity="0.2"/>
<path d="M572.53,351.69c-5.09-6.74-13.58-12.55-22.32-11.91,8.7.84,16.1,6.1,22.32,11.91Z" opacity="0.2"/>
<path d="M525.41,352.18a14.26,14.26,0,0,0,5-14.38s2.48-.49,0-5.45v-3.48s10.42-7.93,0-19.83c0,0-14.88-13.89-23.8,2,0,0-6.95-6.94-14.39,2,0,0-4.46-1-6.44,1.49,0,0-4.47-5.45-8.93,3.47,0,0-14.88-7.44-21.33,5.46,0,0-8.92,12.89,9.43,21.82,0,0-1,6.94,5.95,8.93,0,0,.49,6.44,8.43,6.44a4.65,4.65,0,0,0,4.46,3s3.47,2,15.87-1.49Z" fill="#e1e1e2"/>
<path d="M530.37,328.87a14.51,14.51,0,0,0-6.22-8.31l.17.2a10.11,10.11,0,0,0-5.69-5.32A8.15,8.15,0,0,0,516,315l.46.41c-.51-2.77-2.88-3.94-5.48-3.2-1.4.2-3.49.22-4.4-1.21.92,1.9,3.48,1.93,5.3,1.67a3.31,3.31,0,0,1,3.72,3.22,8.19,8.19,0,0,1,4.83,1.56,10.92,10.92,0,0,1,3.17,3.78,16.51,16.51,0,0,1,6.78,7.62Z" fill="#ccc"/>
<path d="M478.3,320.44a13.67,13.67,0,0,0-7.44,12.92l.4-.5a7.15,7.15,0,0,0-5.34,5.81,13.25,13.25,0,0,0,.76,6.14c0,.69,0,2.75-1.28,2.91,1.38,0,1.58-1.91,1.71-3-.1-.58-.24-1.16-.35-1.74s-.12-1.12-.18-1.68c0-.29,0-1,0-1.26s.14-.95.17-1.23a6.5,6.5,0,0,1,4.69-5l.4-.1v-.41a14.66,14.66,0,0,1,6.46-12.87Z" fill="#ccc"/>
<path d="M530.37,337.8s-3-15.37-17.36-15.37c0,0-20.83-.5-23.31,18.84,0,0-5.45,2.48,1,9.43,0,0-.05,9.25,13.63,9.67l21.08-8.19S532.36,348.22,530.37,337.8Z" fill="#ccc"/>
<path d="M521.44,342.26c-4.12,3.89-9.68,6.42-15.4,5.79-.83,0-1.62-.25-2.45-.33a17,17,0,0,0,2.37.81c5.79,1.46,12.22-1.36,15.48-6.27Z" fill="#b3b3b3"/>
<path d="M512,334.83a45.36,45.36,0,0,1,.13,12.8l1,.07A46,46,0,0,0,512,334.83Z" fill="#b3b3b3"/>
<path d="M514.21,332.28a16.9,16.9,0,0,0,5.36-5.94,3.53,3.53,0,0,0-.78-4.19c-3-2.73-10-6.55-20,3.37a1.48,1.48,0,0,0,.2,2.29,38.72,38.72,0,0,0,11.74,5.12A4.21,4.21,0,0,0,514.21,332.28Z" fill="#2f2e41" data-secondary="true"/>
<path d="M543.84,380.81,513,394.34,499.62,362.1c-10.66,2.23-15.87,1.49-15.87,1.49-5.95,1.49-7.44,13.39-7.44,13.39-8.43,3-6.44,11.9-6.44,11.9-4,1-1.49,5-1.49,5-5.95,3-3.47,7.44-3.47,7.44-8.93,4-2.48,9.92-2.48,9.92-2,9.92,8.92,12.4,8.92,12.4,0,6.45,6,3,6,3,0,5.45,5.95,1.48,5.95,1.48,3.47-2.48,4.46-1,4.46-1,2.48,8.43,9.92,5.95,9.92,5.95,1.49,7.44,6.45,4.47,6.45,4.47,5.45,9.92,17.85,1.48,17.85,1.48l27.28-13.88c10.41-3.47,15.87-7.94,15.87-7.94,8.92-4.46,15.37-12.89,15.37-12.89l11.93-16.06a8.34,8.34,0,0,0,1.69-4.42c.33-5.09-4.69-5.81-4.69-5.81,1-6.94-6.45-6-6.45-6,0-7.93-8.93-7.44-8.93-7.44s-6.37,3.9-19.3,10.38Z" fill="#e1e1e2"/>
<path d="M582.94,379.46a16.81,16.81,0,0,1-1.49,12.4s-1.48,4-4.46,1c0,0-3.47,1-4-1.49a5.07,5.07,0,0,0-3-3.47s-2.48.5-2.48-4a2.48,2.48,0,0,0-2-3s-1.22-.31-1.51-2.84a8.79,8.79,0,0,1,1-4.91c1.63-3.19,5.52-8,13-2.67C578,370.53,580.46,372,582.94,379.46Z" fill="#ccc"/>
<path d="M544.26,392.85s6.94,6.45,1,20.34c0,0-3.47,6.94-6,2.48,0,0-1-1.49-3,1,0,0-1.48,1.48-3-1.49a2.71,2.71,0,0,0-2.48-2.48s-4,.5-3-4a13.3,13.3,0,0,0,1.49-7.44s-3-2,1.49-5c0,0,1.49-7.44,8.92-5.95A9.78,9.78,0,0,1,544.26,392.85Z" fill="#ccc"/>
<path d="M555.69,374.52a3.78,3.78,0,0,1-1.83,5.46,3.3,3.3,0,0,0-1.55,3.11,12.71,12.71,0,0,0,.53,3.49,14.37,14.37,0,0,1,1.51,7.2,6,6,0,0,1-.3,1.12,7.49,7.49,0,0,0-.72,4A27.62,27.62,0,0,0,555,406.5c.62,2,.88,5.34-.73,6.84-1.53,1.16-1.72,3.09-2,4.82a15.07,15.07,0,0,1-3,6.93,14.55,14.55,0,0,0,3.57-6.81c.38-1.55.58-3.37,2-4.35,1.85-1.6,1.69-4.23,1.49-6.41a7.5,7.5,0,0,0-.33-1.34,24.24,24.24,0,0,1-1.3-4.88c-.21-1.61-.61-3.28-.12-4.87.16-.61.48-1.21.65-1.83a8.37,8.37,0,0,0,0-3.38,18.2,18.2,0,0,0-1.66-5,13.63,13.63,0,0,1-.58-3.14,2.77,2.77,0,0,1,1.13-2.68,4,4,0,0,0,1.61-5.89Z" fill="#ccc"/>
<path d="M553.72,396.15a13.67,13.67,0,0,1-6.6-5.37l-.67-1,0,0a6.66,6.66,0,0,0-2.77-3.07c-3.06-1.74-6.81-1.28-10.06-.37l-1.93.64.21,0a6.9,6.9,0,0,0-3.73.73c-3.51,1.77-4.56,6-4.76,9.59l.35-.45a8.65,8.65,0,0,0-5.5,6.72,14.78,14.78,0,0,0,.78,6.78l.23-.52a6.38,6.38,0,0,0-3.26,5.07,11.85,11.85,0,0,0,1.2,5.84v-.22a12.06,12.06,0,0,0-.82,2.93c-.55,3.05.53,6.33,3.55,7.6-4-2-3.87-6.73-2.24-10.3l0-.1,0-.12a18.51,18.51,0,0,1-.87-2.74,12.56,12.56,0,0,1-.19-2.12,5.8,5.8,0,0,1,3.29-5.23c-.06-.18-.52-1.92-.59-2.15-.65-2.92-.43-6.29,1.76-8.54a7.87,7.87,0,0,1,3.26-2.07c.18-3.38.92-7.46,4.21-9.17a6.08,6.08,0,0,1,3.31-.66l.1,0,1.88-.63c4.11-1.3,9.88-1.72,12.12,2.79,1.85,2.74,4.43,5.34,7.71,6.19Z" fill="#ccc"/>
<path d="M519.46,410.21c-2.06-1.24-4.74-.33-6.32,1.3-1.39,1.6-2.85,3.21-4.95,3.86a5,5,0,0,1-4.1-.2,4.13,4.13,0,0,0,2,1,7.42,7.42,0,0,0,6.28-2.37c1.81-2.26,3.88-4.44,7.09-3.62Z" fill="#ccc"/>
<path d="M487.72,427.07c3.1.34,4.75-2.11,4.77-5l-.1.23c3.24-3,6.38-8.1,3.68-12.39a2.91,2.91,0,0,1-.76-2.14,10.14,10.14,0,0,1,.31-2.44l-.2.28c2.21-1.64,1.74-4.31,0-6.12l.05.46c.77-1.69,2.11-4.8.11-6.08a2.67,2.67,0,0,0-.93-.27l.12.06c-.9-1.19-1-2.87-1.14-4.32,0,1.58-.07,3.3.88,4.65,2.74.49,1.05,4,.26,5.57l-.13.22.17.24c1.34,1.57,1.79,3.6-.12,4.91a11.47,11.47,0,0,0-.4,2.86,3.6,3.6,0,0,0,1.05,2.79l-.14-.15a6.34,6.34,0,0,1,.65,1.4c1,3.73-1.49,7.39-3.91,10l-.1.1v.12c.11,2.71-1.18,5-4.16,5Z" fill="#ccc"/>
<path d="M486.23,417.65s3,3-1.49,4c0,0-9.91,1.48-14.87-3,0,0-3,0-2.48-5,0,0-.38-3.42,1.85-1.61a4.27,4.27,0,0,0,4,.84,2.91,2.91,0,0,0,1.95-1.69A3,3,0,0,1,476,410c.7-.62,1.8-1.15,2.52.67a2.28,2.28,0,0,0,2.26,1.46,1.67,1.67,0,0,0,.76-.22,2.88,2.88,0,0,1,3.5.22C486.09,413.14,486.93,414.85,486.23,417.65Z" fill="#ccc"/>
<path d="M523.92,630.41s-1.48,9.42-6.44,13.39c0,0-15.87,12.4,11.4,8.93l6-25.79Z" fill="#0071f2" data-primary="true"/>
<path d="M667.48,656.88c-15.72,1.06-94.09,6.26-112.81,6.26,0,0-19.83-2.48-26.78-7.44,0,0-2.48-46.12.5-64,0,0-5.46-13.39,19.84-12.9,0,0-3-6.45,11.4-5h87.79s6.44,0,7.93,6c0,0,18.35-2,18.35,18.35,0,0,2.44,41.91-1.89,55.34A4.88,4.88,0,0,1,667.48,656.88Z" fill="#0071f2" data-primary="true"/>
<path d="M667.48,656.88c-15.72,1.06-94.09,6.26-112.81,6.26,0,0-19.83-2.48-26.78-7.44,0,0-2.48-46.12.5-64,0,0-5.46-13.39,19.84-12.9,0,0-3-6.45,11.4-5h87.79s6.44,0,7.93,6c0,0,18.35-2,18.35,18.35,0,0,2.44,41.91-1.89,55.34A4.88,4.88,0,0,1,667.48,656.88Z" fill="#fff" opacity="0.3"/>
<path d="M551.7,585.28c2.69,1.92,4.28,5,5.24,8.11,1.43,4.72,1.21,9.75.89,14.62-1,18-1.69,36.64-1.67,54.64q.86-9.92,1.42-19.84c.36-5.7.74-14,1-19.85.24-6.63.55-13.22.63-19.88-.07-6.47-1.69-14.12-7.52-17.8Z" fill="#0071f2" data-primary="true"/>
<path d="M655.35,579.82c.87,3.91-4.07,5.46-7.05,6.09-5.77,1.22-11.68.71-17.53.9-8.17.19-20,.6-28.27.89-4.62.18-16.71.66-21.19.88-5.75.46-11.75.11-17-2.43s-10.75-4.94-16.08-7.32c5.16,2.72,10.49,5.44,15.7,8.09a30.31,30.31,0,0,0,13.9,3.08c2.32,0,8.21-.29,10.63-.33,7-.23,21.18-.75,28.22-1.06,5.87-.25,11.75-.54,17.63-.81,5.87-.07,12-.16,17.49-2.52,2.07-.9,4.47-3,3.55-5.46Z" fill="#0071f2" data-primary="true"/>
<path d="M655.85,604.13s-25.79-48.11-37.2-54.06l-.28-1.4a1.26,1.26,0,0,0-1.32-1l-27.16,1.91s-4,.5-3.48,4l3.24,56.16a52.69,52.69,0,0,1,10.65-1.61L590.88,558l27.77-3.47,27.5,49.75S651.88,602.64,655.85,604.13Z" fill="#2f2e41" data-secondary="true"/>
<polygon points="618.65 554.53 621.33 573.74 614.2 573.74 614.77 555.2 618.65 554.53" fill="#2f2e41" data-secondary="true"/>
<polygon points="586.41 553.54 567.4 573.74 575.39 573.46 587.09 558.62 586.41 553.54" fill="#2f2e41" data-secondary="true"/>
<path d="M521.94,216.29s-3,14.39-1,21.33l4.19,4.19a1.16,1.16,0,0,1,.05,1.59l-17.55,20.19a1.35,1.35,0,0,1-2.3-.48l-6.58-20.56a3.09,3.09,0,0,1,.93-3.29l1.12-.95a2.15,2.15,0,0,0,.74-1.74l-.44-8.37,16.37-14.88Z" fill="#f9b499"/>
<path d="M501.36,232.41v5s10.91-2,11.9-11.9c0,0-9.19-.62-9.8.43A60.13,60.13,0,0,0,501.36,232.41Z" fill="#f7a48b"/>
<circle cx="534.59" cy="194.22" r="10.17" fill="#2f2e41" data-secondary="true"/>
<rect x="488.9" y="187.41" width="29.94" height="46.81" rx="14.97" transform="matrix(-0.92, -0.38, 0.38, -0.92, 888.44, 598.67)" fill="#f9b499"/>
<path d="M520,209.85S521.44,197,513,196c0,0-4.93-.76-6.83-3.94a3.15,3.15,0,0,0-3-1.59c-3,.33-8.2,2.34-11.73,11.62,0,0-8.7-4.11-1.76-15.51,0,0,6.45-9.92,18.35-5.46,0,0,2.48-11.9,11.41-6,0,0,3.47,2,8.93,20.83,0,0,30.25,28.27,23.31,46.12,0,0-1.49-18.35-9.43-24.3,0,0,12.4,28.77-2,32.73l-15.15-8.7L521,237.62s-2.23-7.19,1-21.33Z" fill="#2f2e41" data-secondary="true"/>
<ellipse cx="523.44" cy="212.94" rx="6.38" ry="5.17" transform="translate(77.31 559.78) rotate(-60)" fill="#f9b499"/>
<path d="M509.05,384.92s-12.59,8.71-26.28,8.92a2.29,2.29,0,0,1-1.35-.38c-.69-.47-1.27-1.42.62-3.13a.46.46,0,0,0-.33-.81c-2.26.14-6.32.13-7.38-1.63,0,0-1.49-2.48,5.45-5.45,0,0-11.4,4-11.4-.5,0,0-.9-3.57,6.64-4.78a1.09,1.09,0,0,0-.14-2.16h-3.3a9.1,9.1,0,0,0-4.26,1.11,4,4,0,0,1-3.41.38s-2.48-1.49-.49-4.47c0,0,1.49-3,8.43-3.47,0,0,17,.44,15.45-5.64a3.45,3.45,0,0,0-1.19-1.79c-1.87-1.54-7.28-6.55-5.88-11.86a1.19,1.19,0,0,1,2-.51c3.25,3.63,12,12.6,18.1,15.09C500.37,363.84,502.35,367.81,509.05,384.92Z" fill="#f9b499"/>
<path d="M673.83,631.39c-1.63-5-4.08-12.36-5.77-17.45a19.24,19.24,0,0,0-9.56-9.55,17.26,17.26,0,0,0-6.76-1.36c-1.48,0-5.23.36-6.76.47l-9,.74c-10,.81-25.69,2.24-35.79,3.13a45,45,0,0,0-9.19,1.21c-4.52,1.12-9.11,3-12.37,6.5a14.34,14.34,0,0,0-2.66,4l-3.66,8.43c-2.44,5.62-4.9,11.22-7.31,16.85a14.78,14.78,0,0,0-1,6.86l.12,2.3q.21,4.57.47,9.17c0-3.06-.06-6.12-.11-9.18a43.29,43.29,0,0,1,0-4.56,13.76,13.76,0,0,1,1.16-4.33l7.67-16.68,3.83-8.34a14.81,14.81,0,0,1,5.91-6.34c5.13-3,11.36-4.21,17.27-4.4,0,0,17.91-1.59,17.91-1.6,8-.71,18.87-1.74,26.83-2.5,1.4-.11,5.29-.59,6.67-.6a16.43,16.43,0,0,1,6.38,1.15,19,19,0,0,1,9.31,8.88c1.86,5.05,4.52,12.27,6.39,17.24Z" fill="#0071f2" data-primary="true"/>
<rect x="354.81" y="164.72" width="33.72" height="52.57" rx="16.86" transform="translate(743.34 382) rotate(180)" fill="#f9b499"/>
<path d="M391.06,207.19s18.3-35.53-.05-41c0,0-4.46-1.48-5.46-4,0,0-2.48-8.93-13.88-7a7.28,7.28,0,0,1-6.95-2.48s-7.43-6.94-13.88,2c0,0-5,4-4.47,13.88a19.8,19.8,0,0,0,8.3,14.9s-.36-6.47,2.12-6.47c0,0,6.45,4.47,15.37-1.48,0,0,10.42-3.48,10.42,2.48,0,0-1,2.48,3,5v8.43l5.46,6.94Z" fill="#2f2e41" data-secondary="true"/>
<path d="M390.34,186.54h7.12a0,0,0,0,1,0,0v13.89a0,0,0,0,1,0,0h-7.12a5.28,5.28,0,0,1-5.28-5.28v-3.33A5.28,5.28,0,0,1,390.34,186.54Z" transform="translate(782.52 386.96) rotate(-180)" fill="#f9b499"/>
<path d="M415.81,347.22s-12.4-24.79-28.77-24.79c0,0-35.71,20.33-46.62,24.3l-11.9-4.47s-15-6.8-22.35.42a1.28,1.28,0,0,0,.32,2.06,19.37,19.37,0,0,0,7.15,1.49s6.45.5,3,3c-3.29,2.35-11,6-22.8,8.52a1.44,1.44,0,0,0-.81,2.35c1.41,1.64,4.27,3.62,9.72,3,0,0,0,5.46,8.93,5.46A20.52,20.52,0,0,0,328,370l12.9-7S381.59,356.65,415.81,347.22Z" fill="#f9b499"/>
<path d="M302.73,363.09a42.41,42.41,0,0,0,13.64-6.19" fill="none" stroke="#f7a48b" stroke-miterlimit="10"/>
<path d="M311.66,368.55s4.21.25,11.16-4.71" fill="none" stroke="#f7a48b" stroke-miterlimit="10"/>
<rect x="389.52" y="592.72" width="44.64" height="13.89" rx="5.28" transform="translate(823.68 1199.32) rotate(-180)" fill="#2f2e41" data-secondary="true"/>
<rect x="309.18" y="594.21" width="44.64" height="13.89" rx="5.28" transform="translate(509.25 1264.23) rotate(-166.13)" fill="#2f2e41" data-secondary="true"/>
<rect x="91.29" y="349.01" width="26.8" height="37.96" rx="13.4" transform="translate(73.85 749.35) rotate(-159.5)" fill="#f9b499"/>
<path d="M79.55,361.61c-1,7.44,7,12.4,7,12.4,2.48-3,5.6-10.3,5.6-10.3,5.1-1.36,5.31-4.09,5.31-4.09,7.44,5.46,10.91-2.48,10.91-2.48,2,3,6,0,6,0,0,4,6.45,5.95,6.45,5.95s-5.1.89-2.8,7.64c0,0,3.29,2.78,3.29-3.67,0,0,6,1,6-8.92,0,0,5-3-.5-6.95,0,0,3-6.94-6-5.45,0,0,.49-5.95-4-5.95,0,0-.5-5-6-4,0,0-6-4-10.91,1,0,0-5.46,0-4.47,5.45,0,0-13.39,0-12.39,8.44,0,0-5,1.48-2,5.95A23.34,23.34,0,0,0,79.55,361.61Z" fill="#2f2e41" data-secondary="true"/>
<circle cx="88.98" cy="363.09" r="4.96" fill="#f9b499"/>
</svg>