 <!DOCTYPE svg PUBLIC "-//W3C//DTD SVG 1.1//EN" "http://www.w3.org/Graphics/SVG/1.1/DTD/svg11.dtd">
<svg xmlns="http://www.w3.org/2000/svg" width="865.76" height="682.89" viewBox="0 0 865.76 682.89">
<defs>
<style xmlns="http://www.w3.org/1999/xhtml">*, ::after, ::before { box-sizing: border-box; }
img, svg { vertical-align: middle; }
</style>
<style xmlns="http://www.w3.org/1999/xhtml">*, body, html { -webkit-font-smoothing: antialiased; }
img, svg { max-width: 100%; }
</style>
</defs>
<text transform="translate(432.88 341.45)" font-size="12" font-family="MyriadPro-Regular, Myriad Pro">
<tspan letter-spacing="-0.02em">P</tspan>
<tspan x="6.08" y="0">omodo</tspan>
<tspan x="42.62" y="0" letter-spacing="-0.01em">r</tspan>
<tspan x="46.43" y="0">o </tspan>
<tspan x="55.56" y="0" letter-spacing="-0.01em">t</tspan>
<tspan x="59.46" y="0">echnique </tspan>
</text>
<path d="M105.47,476.93s-94-88.72-42.36-206.51c14.35-32.74,37.55-60.8,66.42-81.88C194.17,141.35,357.75,48,603.81,84a183.44,183.44,0,0,1,74.1,27.83C714,135.55,752.31,179.07,736,253.64c-5.75,26.35-4.45,53.84,5,79.1,9.4,25,27.2,55.68,60.35,88.83,0,0,70.64,68.23,1.92,127.28A125.37,125.37,0,0,1,752.58,575C666.91,596.91,320.48,669.72,105.47,476.93Z" fill="#0071f2" data-primary="true"/>
<path d="M105.47,476.93s-94-88.72-42.36-206.51c14.35-32.74,37.55-60.8,66.42-81.88C194.17,141.35,357.75,48,603.81,84a183.44,183.44,0,0,1,74.1,27.83C714,135.55,752.31,179.07,736,253.64c-5.75,26.35-4.45,53.84,5,79.1,9.4,25,27.2,55.68,60.35,88.83,0,0,70.64,68.23,1.92,127.28A125.37,125.37,0,0,1,752.58,575C666.91,596.91,320.48,669.72,105.47,476.93Z" fill="#fff" opacity="0.7"/>
<path d="M275.7,580.61H824.86a0,0,0,0,1,0,0v12.26A14.09,14.09,0,0,1,810.77,607H275.7a0,0,0,0,1,0,0V580.61A0,0,0,0,1,275.7,580.61Z" fill="#909091"/>
<path d="M404.59,136.46H724.78a63.29,63.29,0,0,1,63.29,63.29V591a0,0,0,0,1,0,0H341.29a0,0,0,0,1,0,0V199.76a63.29,63.29,0,0,1,63.29-63.29Z" fill="#ccc"/>
<path d="M422.56,136.46H732.15a68.59,68.59,0,0,1,68.59,68.59V591a0,0,0,0,1,0,0H354a0,0,0,0,1,0,0v-386A68.59,68.59,0,0,1,422.56,136.46Z" fill="#e6e6e6"/>
<path d="M727.34,433.26,694.92,575.81H616.56l8.82-160.23h87.86q.4,0,.81,0h0A14.46,14.46,0,0,1,727.34,433.26Z" fill="#3f4347"/>
<path d="M727.34,433.26,694.92,575.81H666.31l35.1-149a14.71,14.71,0,0,1,4.76-7.88,13.92,13.92,0,0,1,7.88-3.28h0A14.46,14.46,0,0,1,727.34,433.26Z" fill="#2e3135"/>
<path d="M616.56,575.81h37.12s8.43-52-2.61-75.88Z" fill="#2e3135"/>
<line x1="526.1" y1="213.12" x2="555.96" y2="213.12" fill="none" stroke="#ccc" stroke-miterlimit="10" stroke-width="4"/>
<line x1="525.91" y1="233.32" x2="555.77" y2="233.32" fill="none" stroke="#ccc" stroke-miterlimit="10" stroke-width="4"/>
<line x1="526.54" y1="271.21" x2="556.4" y2="271.21" fill="none" stroke="#ccc" stroke-miterlimit="10" stroke-width="4"/>
<path d="M431.33,316.85S418.58,339,410,382.31c0,0-8.72,47.88-10.91,90.91,0,0-5.58,79.79-5.84,90.32v12.8H467l7-4.52,3.64-45.16.76-96.67s-.72-54.55,12.37-97.76L467,328.68l-19-5.4Z" fill="#e6e6e6"/>
<path d="M409.8,257s-41.41,42-17.57,73.4c0,0,24.23-17.69,44-22.4a49.31,49.31,0,0,1-.72-5.16V284.45S418.64,281.44,409.8,257Z" fill="#2f2e41" data-secondary="true"/>
<path d="M396.06,224.22l14.38-4.15a1.2,1.2,0,0,1,1.51,1h0a1.21,1.21,0,0,1-.85,1.35l-14.65,4.21Z" fill="#0071f2" data-primary="true"/>
<ellipse cx="409.67" cy="234.39" rx="13.8" ry="13.99" fill="#f29681"/>
<path d="M491.1,235.33v66a27.79,27.79,0,0,1-55.54,1.49c0-.49,0-1,0-1.49v-66Z" fill="#f9b499"/>
<path d="M479.3,269.32c-11.82,34.55-39.75,33.84-43.74,33.55,0-.49,0-1,0-1.49V278.29Z" fill="#f29681"/>
<g opacity="0.2">
<path d="M401.49,324.35a.19.19,0,0,1-.17-.1,35.42,35.42,0,0,1-3.92-13.62,40.73,40.73,0,0,1,.81-11.87,43.15,43.15,0,0,1,4.15-11.58.18.18,0,1,1,.32.18,43.73,43.73,0,0,0-4.11,11.49,37.54,37.54,0,0,0,3.09,25.23.19.19,0,0,1-.08.25A.15.15,0,0,1,401.49,324.35Z"/>
</g>
<path d="M378.68,333.25a.18.18,0,0,1-.18-.12c0-.11-3.87-10.95-2-26a68.86,68.86,0,0,1,8.38-25.28c5.58-10,13.76-19.09,24.31-27.15a.2.2,0,0,1,.27,0,.19.19,0,0,1,0,.26c-23.79,18.17-30.83,38.4-32.55,52.18-1.86,14.92,1.95,25.67,2,25.78a.19.19,0,0,1-.11.24Z" fill="#2f2e41" data-secondary="true"/>
<path d="M436.28,308s-38.59,8.41-73.91,51c0,0-30.74,35.75-47.05,94.22l38.39,110.28h39.52s4.52-79.29,7.53-109.53C400.76,454,408.17,353.89,436.28,308Z" fill="#0071f2" data-primary="true"/>
<g opacity="0.2">
<path d="M318.31,461.33h-.06a.18.18,0,0,1-.12-.23,452.52,452.52,0,0,1,18.21-47.42A305.1,305.1,0,0,1,357,374.73c8.8-13.73,17.73-24.17,26.56-31a.19.19,0,0,1,.27,0,.18.18,0,0,1,0,.26c-19.93,15.47-36.62,46.5-47.12,69.82a450.5,450.5,0,0,0-18.2,47.38A.19.19,0,0,1,318.31,461.33Z"/>
</g>
<g opacity="0.2">
<path d="M395.12,335.51a.17.17,0,0,1-.15-.07.19.19,0,0,1,0-.27c.06,0,5.31-3.92,12.43-8.23,6.58-4,16.14-9.12,24.36-11.09a.18.18,0,0,1,.22.14.18.18,0,0,1-.13.23c-15.64,3.75-36.44,19.1-36.65,19.25A.15.15,0,0,1,395.12,335.51Z"/>
</g>
<path d="M396.36,329.3c-.05.05-4.66,5-10,14.94A128.91,128.91,0,0,0,378,363.35a162.93,162.93,0,0,0-6.79,27.26L361,435.35a151.78,151.78,0,0,1-8.81,21.85c-6,12.5-14.49,26.16-24.74,30.81l18.95,54.58q2.16-24.33,5.64-50.44,3.65-27,8.24-51.92l11.27-49.55c3.49-21.61,10.12-37.08,15.06-46.25,5.35-9.94,9.94-14.83,10-14.87Z" opacity="0.2"/>
<path d="M591.14,359.65c36.44,45.09,54.78,104.27,54.78,104.27,24.47,81.31-24.84,112.3-24.84,112.3L467,576.47c12.54-27.48-9.79-42.41-9.79-42.41l20.45-7.4.76-91.47C476.92,385.76,489,338.33,489,338.33c6.59-18,2.14-36.26,1.38-36.63C490.34,301.7,552.29,311.59,591.14,359.65Z" fill="#0071f2" data-primary="true"/>
<g opacity="0.2">
<path d="M495.24,558.21a.19.19,0,0,1-.19-.18.18.18,0,0,1,.18-.19L581,555.51c1.29,0,2.59,0,3.88.07q3,.2,5.92.2c15.55,0,27.58-4.3,35.82-12.82,7.32-7.58,10.2-17.16,11.32-23.86a54.5,54.5,0,0,0,.68-12.87v0c-1.1-44.1-16.48-80.95-29.19-104.1C595.62,377,581.93,362.2,581.8,362.05a.19.19,0,0,1,0-.27.19.19,0,0,1,.26,0c.14.15,13.85,15,27.65,40.14a247.3,247.3,0,0,1,19.45,45.63A216.67,216.67,0,0,1,639,506.2a55.46,55.46,0,0,1-.69,12.95,51.55,51.55,0,0,1-3.49,12,40.2,40.2,0,0,1-7.93,12c-8.31,8.59-20.43,12.93-36.09,12.93q-2.89,0-5.94-.19c-1.28-.09-2.57-.11-3.85-.08l-85.73,2.33Z"/>
</g>
<g opacity="0.2">
<path d="M545.93,427.6a.19.19,0,0,1-.19-.15,78.38,78.38,0,0,1,1-29.63,56.41,56.41,0,0,1,11.64-23.67c6.93-8.17,16.42-14.12,28.22-17.68a.19.19,0,0,1,.23.13.18.18,0,0,1-.12.23c-26.55,8-36.19,26.76-39.6,41.07a77.84,77.84,0,0,0-1,29.48.19.19,0,0,1-.15.22Z"/>
</g>
<g opacity="0.2">
<path d="M576,356.21a.24.24,0,0,1-.14,0c-18.57-19.23-40.24-30.6-55.15-36.75a152.4,152.4,0,0,0-28.18-8.84.19.19,0,1,1,.06-.37,153,153,0,0,1,28.26,8.86,176.62,176.62,0,0,1,27,13.95,153.76,153.76,0,0,1,28.26,22.88.19.19,0,0,1,0,.27A.18.18,0,0,1,576,356.21Z"/>
</g>
<rect x="496.99" y="372.84" width="32.12" height="8.28" rx="4.14" fill="#fff"/>
<path d="M470.69,563.12c-10.37,4.73-22.88-.08-22.88-.08l-15.13-5.71L418.58,552a6.19,6.19,0,0,0-5.9-.63c-4.51,1.13-9.53,2-9.53,2a35.41,35.41,0,0,0-7.91,2.51l-12.42,6.4a15.2,15.2,0,0,1-13.67-.63c-6.78,4.52-12.3-1-12.3-1-2.13,2.51-3.38,2.19-3.38,2.19l-2.31-6.61,14.22-14.9-5.9,3.64a15.19,15.19,0,0,1-11.22,3l-2.13-6.36,25.15-14,22-2.88c13.3-2.51,22-.13,22-.13l33.12,8.91c6.65,2.88,8.91.5,8.91.5C473.66,546.36,470.69,563.12,470.69,563.12Z" fill="#f9b499"/>
<path d="M470.69,563.12c-10.37,4.73-22.88-.08-22.88-.08l-15.13-5.71-.06-.12c26.22-.57,24.6-23.15,24.6-23.15C473.66,546.36,470.69,563.12,470.69,563.12Z" fill="#f29681"/>
<path d="M366.76,540.14a.23.23,0,0,1-.11,0,.19.19,0,0,1,0-.26c.06-.09,6-8.36,13.05-9.11L396.84,528a.19.19,0,1,1,.06.37l-17.19,2.76c-6.87.74-12.74,8.87-12.79,9A.2.2,0,0,1,366.76,540.14Z" fill="#f29681"/>
<path d="M356.85,560.85a.16.16,0,0,1-.13-.06.18.18,0,0,1,0-.27L376.1,541.6a11.71,11.71,0,0,1,5.26-3l21.36-5.51a.19.19,0,0,1,.23.14.19.19,0,0,1-.13.23L381.46,539a11.39,11.39,0,0,0-5.1,2.88L357,560.79A.16.16,0,0,1,356.85,560.85Z" fill="#f29681"/>
<path d="M369,561.6a.18.18,0,0,1-.15-.08,2.24,2.24,0,0,1-.25-1.84c.34-1.21,1.54-2.29,3.58-3.21l33.49-18.18c.22-.15,3.85-2.41,11-2a.17.17,0,0,1,.17.19.18.18,0,0,1-.19.18c-7.12-.37-10.77,2-10.81,2h0l-33.5,18.19h0c-1.91.85-3.07,1.87-3.37,2.95a1.93,1.93,0,0,0,.18,1.53.2.2,0,0,1,0,.27A.23.23,0,0,1,369,561.6Z" fill="#f29681"/>
<path d="M488.19,309.54c-5.3,13.61-15.42,16.78-15.42,16.78-20.08,7.8-31-7.21-31-7.21s23.62,17,41.06-4.11a61.79,61.79,0,0,0,8.3-16.64S489.91,305.59,488.19,309.54Z" fill="#f29681"/>
<path d="M434.88,345.78a44.75,44.75,0,0,0,2.52,7.36s10.91-15.93,17.81-21.08a73.61,73.61,0,0,1,16.57,28.11s12.33-8.34,16-21.49a77.25,77.25,0,0,1-14.26,16.59s-1-10.84-17.68-27.13l-.76-.22S442.4,330.9,434.88,345.78Z" opacity="0.2"/>
<path d="M398.34,487s14.48-102.24,32.29-144.5c0,0-4.24-10.57.7-25.6A281.17,281.17,0,0,0,412,378.53s-10.9,53.89-11.93,83.88Z" opacity="0.2"/>
<path d="M191.71,560.28l-41.2-103.75a15.19,15.19,0,0,1,13.35-20.78l102-5.18a39.84,39.84,0,0,1,39.74,26.94l35.93,105.35a20.69,20.69,0,0,0,8.2,10.68,22.23,22.23,0,0,0,6.64,2.93H215.56A25.66,25.66,0,0,1,191.71,560.28Z" fill="#2f2e41" data-secondary="true"/>
<path d="M268.77,430.55l21-.65a23.53,23.53,0,0,1,22.7,15.75l41.28,117.89H459.45a6.4,6.4,0,0,1,6.4,6.41h0a6.4,6.4,0,0,1-6.39,6.4l-103.11.12a21.22,21.22,0,0,1-14.84-13.61L305.58,457.51S298.38,432.06,268.77,430.55Z" fill="#2f2e41" data-secondary="true"/>
<path d="M268.77,430.55l21-.65a23.53,23.53,0,0,1,22.7,15.75l41.28,117.89H459.45a6.4,6.4,0,0,1,6.4,6.41h0a6.4,6.4,0,0,1-6.39,6.4l-103.11.12a21.22,21.22,0,0,1-14.84-13.61L305.58,457.51S298.38,432.06,268.77,430.55Z" opacity="0.2"/>
<circle cx="247.01" cy="508.28" r="10.85" opacity="0.2"/>
<rect x="46.07" y="275.73" width="237.76" height="195.22" rx="13.43" fill="#e6e6e6"/>
<path d="M255.66,311.36a11.11,11.11,0,1,1,11.11-11.1A11.11,11.11,0,0,1,255.66,311.36Zm0-21.71a10.61,10.61,0,1,0,10.6,10.61A10.62,10.62,0,0,0,255.66,289.65Z" fill="#0071f2" data-primary="true"/>
<rect x="121.73" y="334.44" width="31.37" height="31.49" fill="#0071f2" data-primary="true"/>
<rect x="163.76" y="334.44" width="78.04" height="11.17" fill="#ccc"/>
<rect x="163.76" y="354.77" width="102.25" height="11.17" fill="#0071f2" opacity="0.25" data-primary="true"/>
<rect x="121.48" y="391.66" width="31.37" height="31.49" fill="#0071f2" data-primary="true"/>
<rect x="163.51" y="391.66" width="78.04" height="11.17" fill="#ccc"/>
<rect x="163.51" y="411.98" width="102.25" height="11.17" fill="#0071f2" opacity="0.25" data-primary="true"/>
<rect x="121.48" y="437.83" width="144.54" height="20.95" fill="#0071f2" opacity="0.25" data-primary="true"/>
<path d="M275.42,323h-156a.25.25,0,0,1,0-.5h156a.25.25,0,1,1,0,.5Z" fill="#ccc"/>
<path d="M275,378.11H119a.26.26,0,0,1,0-.51H275a.26.26,0,1,1,0,.51Z" fill="#ccc"/>
<path d="M147.7,528.79v25.47a22.21,22.21,0,1,1-44.41,0V528.79Z" fill="#2f2e41" data-secondary="true"/>
<path d="M147.7,538v16.28A22.21,22.21,0,0,1,107,566.55c6.38.78,30.41,1.56,40.7-28.57Z" opacity="0.2"/>
<path d="M104.68,561.1h-1.8a12.34,12.34,0,0,1,0-24.67h.39l.33,0v17.85a21.82,21.82,0,0,0,1,6.43Zm-1.8-24a11.71,11.71,0,0,0,0,23.41h1a22.39,22.39,0,0,1-.87-6.21v-17.2Z" fill="#2f2e41" data-secondary="true"/>
<path d="M45.7,580.61H594.86a0,0,0,0,1,0,0v12.26A14.09,14.09,0,0,1,580.77,607H45.7a0,0,0,0,1,0,0V580.61a0,0,0,0,1,0,0Z" fill="#9ea0a3"/>
<rect x="586.45" y="575.84" width="253.44" height="15.93" rx="7.97" fill="#9ea0a3"/>
<path d="M835.88,519.35v7.85a48.64,48.64,0,0,1-48.64,48.64h-16.4A48.64,48.64,0,0,1,722.2,527.2v-7.85a2.73,2.73,0,0,1,2.73-2.73H833.15a2.75,2.75,0,0,1,2.55,1.75A2.93,2.93,0,0,1,835.88,519.35Z" fill="#2f2e41" data-secondary="true"/>
<path d="M835.88,519.35v7.85a48.64,48.64,0,0,1-48.64,48.64h-16.4a48.4,48.4,0,0,1-29.49-10c16,3.35,71,10.11,94.35-47.51A2.93,2.93,0,0,1,835.88,519.35Z" opacity="0.2"/>
<g opacity="0.2">
<rect x="725.97" y="525.03" width="106.65" height="0.5"/>
</g>
<g opacity="0.2">
<rect x="728.54" y="530.92" width="100.87" height="0.5"/>
</g>
<path d="M734.37,516.62V476.26a7.37,7.37,0,0,1,3-6,8.3,8.3,0,0,1,6.06-1.36s5-.12,7.53,7.16V416.62A14.67,14.67,0,0,1,765.62,402h0a14.67,14.67,0,0,1,14.67,14.67v99.92Z" fill="#0071f2" data-primary="true"/>
<path d="M794.41,426.79h0a14.11,14.11,0,0,1,14.11,14.11v75.59a0,0,0,0,1,0,0H780.29a0,0,0,0,1,0,0V440.9A14.11,14.11,0,0,1,794.41,426.79Z" fill="#0071f2" data-primary="true"/>
<path d="M794.41,426.79h0a14.11,14.11,0,0,1,14.11,14.11v75.59a0,0,0,0,1,0,0H780.29a0,0,0,0,1,0,0V440.9A14.11,14.11,0,0,1,794.41,426.79Z" opacity="0.2"/>
<path d="M816.37,459.53h0a7.84,7.84,0,0,1,7.84,7.84v49.12a0,0,0,0,1,0,0H808.52a0,0,0,0,1,0,0V467.38A7.84,7.84,0,0,1,816.37,459.53Z" fill="#0071f2" data-primary="true"/>
<g opacity="0.2">
<rect x="742.28" y="477.22" width="0.5" height="38.89"/>
</g>
<g opacity="0.2">
<rect x="765.36" y="418.32" width="0.5" height="98.36"/>
</g>
<g opacity="0.2">
<rect x="815.93" y="469.13" width="0.5" height="47.55"/>
</g>
<path d="M675.34,172.85a78.86,78.86,0,1,0,79,78.85A78.91,78.91,0,0,0,675.34,172.85ZM674.4,323.4c-40.26,0-72.89-32.18-72.89-71.89s32.63-71.89,72.89-71.89,72.9,32.19,72.9,71.89S714.66,323.4,674.4,323.4Z" fill="#2f2e41" data-secondary="true"/>
<path d="M741.23,303.75a83.7,83.7,0,1,0-25.5,21.76l-7.86-15.29A66.91,66.91,0,1,1,729,291.5Z" fill="#0071f2" data-primary="true"/>
<rect x="655.83" y="294.55" width="40.02" height="2.76" rx="1.38" fill="#2f2e41" data-secondary="true"/>
<polygon points="668 279.62 682.93 279.62 675.53 266.57 668 279.62" fill="#0071f2" data-primary="true"/>
<rect x="673.4" y="244.86" width="4.27" height="14.8" fill="#2f2e41" data-secondary="true"/>
<rect x="701.25" y="244.99" width="4.27" height="14.8" fill="#2f2e41" data-secondary="true"/>
<rect x="728.85" y="244.99" width="4.27" height="14.8" fill="#2f2e41" data-secondary="true"/>
<rect x="682.31" y="248.13" width="1.76" height="8.41" fill="#2f2e41" data-secondary="true"/>
<rect x="688.2" y="248.13" width="1.76" height="8.41" fill="#2f2e41" data-secondary="true"/>
<rect x="693.97" y="248.13" width="1.76" height="8.41" fill="#2f2e41" data-secondary="true"/>
<rect x="710.29" y="248" width="1.76" height="8.41" fill="#2f2e41" data-secondary="true"/>
<rect x="716.18" y="248" width="1.76" height="8.41" fill="#2f2e41" data-secondary="true"/>
<rect x="721.95" y="248" width="1.76" height="8.41" fill="#2f2e41" data-secondary="true"/>
<rect x="737.76" y="248.13" width="1.76" height="8.41" fill="#2f2e41" data-secondary="true"/>
<rect x="671.64" y="153.15" width="5.52" height="17.06" fill="#2f2e41" data-secondary="true"/>
<rect x="622.71" y="353.89" width="107.9" height="19.32" rx="9.66" fill="#ccc"/>
<path d="M619.45,378.17h-.06a.19.19,0,0,1-.12-.24c11.12-32.63-2.88-56.51-16.57-70.8a114.84,114.84,0,0,0-22-17.6,99.11,99.11,0,0,0-10.74-5.84c-18.27-8.95-37.25-27.59-37.44-27.78a.19.19,0,0,1,0-.26.18.18,0,0,1,.27,0c.19.18,19.12,18.78,37.33,27.7a96.08,96.08,0,0,1,10.77,5.86A114.73,114.73,0,0,1,603,306.85c8.76,9.14,14.83,19.09,18,29.58,4,13.12,3.55,27.12-1.38,41.61A.19.19,0,0,1,619.45,378.17Z" fill="#2f2e41" data-secondary="true"/>
<rect x="381.06" y="170.96" width="200.74" height="20.45" rx="10.23" fill="#ccc"/>
<path d="M491.6,221.15l-.5,14.18v5C483.81,282.06,455,285.51,455,285.51c-26.41,4.25-38.43-12.36-43.53-24A40.57,40.57,0,0,1,408,245.18V205.42l9.79-.45s4-21.33,17.31-31.62c0,0-5.77,14.93-6.77,30h21.45s1.76-24.71-1.63-33.37c.13.15,8.42,9.59,10.29,32.24h18.57s.62-13.67-5.9-23.33c0,0,5.77,5,9.28,18.32C480.43,197.19,486.58,215.38,491.6,221.15Z" fill="#f9b499"/>
<path d="M491.6,221.15l0,1.1-.07.14c-8.88-3.52-14.82-14.41-14.82-14.41l-18.44.5-4.4-10.16-.5,10.41-27.85.38a21.53,21.53,0,0,1-.19-9,17.48,17.48,0,0,0-5.25,10H408v-4.73l9.79-.45s4-21.33,17.31-31.62c0,0-5.77,14.93-6.77,30h21.45s1.76-24.71-1.63-33.37c.13.15,8.42,9.59,10.29,32.24h18.57s.62-13.67-5.9-23.33c0,0,5.77,5,9.28,18.32C480.43,197.19,486.58,215.38,491.6,221.15Z" fill="#f29681"/>
<path d="M605.15,379.24c-39.53-66.25-114-77.16-114-77.16V235.33l.5-14.18c-5-5.77-11.17-24-11.17-24-3.51-13.3-9.28-18.32-9.28-18.32,6.52,9.66,5.9,23.33,5.9,23.33H458.48c-1.87-22.65-10.16-32.09-10.29-32.24,3.39,8.66,1.63,33.37,1.63,33.37H428.37c1-15.05,6.77-30,6.77-30C421.84,183.64,417.83,205,417.83,205l-9.79.45-11.92.55c2.89-26,13.05-37.52,13.05-37.52-14.21,12.13-16.43,32.28-16.76,37a1.14,1.14,0,0,1-.34.75,1.2,1.2,0,0,1-.74.37,1.21,1.21,0,0,1-1.34-1.24c.64-28.14,24.57-44.66,24.57-44.66,16.31-14.06,29.86-8.41,29.86-8.41-11.66-12.55.88-20.83.88-20.83-3,14.81,7.28,19.32,7.28,19.32,56.58-20.7,65.87,57.09,65.87,57.09l1.88,20.45c1.75,18.32,21.87,39.43,34,50.59a132.37,132.37,0,0,0,13.07,10.54c16.18,11.49,28.74,29.21,28.74,29.21C623.21,351.76,605.15,379.24,605.15,379.24Z" fill="#2f2e41" data-secondary="true"/>
<path d="M479.37,223.22l15-4.16a1.21,1.21,0,0,1,1.51,1h0a1.2,1.2,0,0,1-.86,1.34l-14.65,4.22Z" fill="#0071f2" data-primary="true"/>
<ellipse cx="498.63" cy="233.51" rx="13.8" ry="13.99" fill="#f9b499"/>
<path d="M455.09,327.92a34.89,34.89,0,0,0-22,22.46c-11-26.47,3.15-42.35,3.15-42.35A27.9,27.9,0,0,0,455.09,327.92Z" fill="#0071f2" data-primary="true"/>
<path d="M455.09,327.92a34.89,34.89,0,0,0-22,22.46c-11-26.47,3.15-42.35,3.15-42.35A27.9,27.9,0,0,0,455.09,327.92Z" fill="#fff" opacity="0.4"/>
<path d="M455.85,328.14s15.93,15.21,17.68,27.13c0,0,13.84-12.08,17.27-23,0,0,4.56-17-.46-30.53C490.34,301.7,486.6,332.13,455.85,328.14Z" fill="#0071f2" data-primary="true"/>
<path d="M455.85,328.14s15.93,15.21,17.68,27.13c0,0,13.84-12.08,17.27-23,0,0,4.56-17-.46-30.53C490.34,301.7,486.6,332.13,455.85,328.14Z" fill="#fff" opacity="0.4"/>
<rect x="25.87" y="575.84" width="592.2" height="15.93" rx="7.97" fill="#e1e1e2"/>
<path d="M103.47,275.79V471H58.31a13.43,13.43,0,0,1-13.43-13.43V289.22a13.43,13.43,0,0,1,13.43-13.43Z" fill="#0071f2" data-primary="true"/>
<rect x="50.21" y="315.63" width="32.37" height="7.4" rx="3.7" fill="#fff"/>
<circle cx="55.8" cy="289.72" r="2.95" fill="#fff"/>
<circle cx="64.96" cy="289.84" r="2.95" fill="#fff"/>
<circle cx="74.11" cy="289.97" r="2.95" fill="#fff"/>
<path d="M79.07,333.06H58.37a.25.25,0,0,1-.25-.25.25.25,0,0,1,.25-.25h20.7a.25.25,0,0,1,.25.25A.25.25,0,0,1,79.07,333.06Z" fill="#fff"/>
<path d="M79,343.73H58.31a.25.25,0,0,1,0-.5H79a.25.25,0,0,1,0,.5Z" fill="#fff"/>
<path d="M79,354H58.31a.25.25,0,0,1,0-.5H79a.25.25,0,0,1,0,.5Z" fill="#fff"/>
<g opacity="0.2">
<rect x="794.66" y="440.4" width="0.13" height="75.91"/>
</g>
<polygon points="645.67 167.2 658.22 177.61 655.46 197.31 675.22 185.02 693.6 197.31 689.71 177.87 703.13 167.2 645.67 167.2" fill="#0071f2" data-primary="true"/>
<polygon points="645.67 167.2 658.22 177.61 655.46 197.31 675.22 185.02 693.6 197.31 689.71 177.87 703.13 167.2 645.67 167.2" opacity="0.2"/>
<ellipse cx="414.32" cy="227.95" rx="17.43" ry="17.5" transform="translate(183.74 640.82) rotate(-89.64)" fill="#fff" opacity="0.32"/>
<ellipse cx="461.75" cy="227.95" rx="17.14" ry="17.2" transform="translate(230.86 688.24) rotate(-89.64)" fill="#fff" opacity="0.32"/>
<path d="M461.74,208.86a19.05,19.05,0,0,0-18.9,16.46l0,0c-4-3.26-9-.67-9.64-.29a19,19,0,1,0,.23,3c4.65-3.83,9.29-.13,9.29-.13a19.07,19.07,0,1,0,19.07-19Zm-47.43,35.75A16.63,16.63,0,1,1,431,228,16.65,16.65,0,0,1,414.31,244.61Zm47.43-.12a16.63,16.63,0,1,1,16.69-16.63A16.66,16.66,0,0,1,461.74,244.49Z" fill="#0071f2" data-primary="true"/>
<path d="M579.66,487.11a28.63,28.63,0,0,1-7.39-2.65,34.85,34.85,0,0,1-15.36-16.87l-9.1-33.27,1.13,38.76c.37,29.74-28.61,39.15-28.61,39.15l-63.11,21.83C480.43,552,467,576.47,467,576.47h20.78c14.13-30.37-8.24-47.54-8.24-47.54,33.38-14.43,86.83-26.73,86.83-26.73,28.85-8,41.4-1.88,41.4-1.88A72,72,0,0,0,579.66,487.11Z" opacity="0.2"/>
<circle cx="482.13" cy="566.62" r="3.07" fill="#2f2e41" data-secondary="true"/>
</svg>