 <!DOCTYPE svg PUBLIC "-//W3C//DTD SVG 1.1//EN" "http://www.w3.org/Graphics/SVG/1.1/DTD/svg11.dtd">
<svg id="f1d9f209-3636-4c37-95f3-41d8dad6d573" data-name="Layer 1" xmlns="http://www.w3.org/2000/svg" width="865.76" height="682.89" viewBox="0 0 865.76 682.89">
<defs>
<style xmlns="http://www.w3.org/1999/xhtml">*, ::after, ::before { box-sizing: border-box; }
img, svg { vertical-align: middle; }
</style>
<style xmlns="http://www.w3.org/1999/xhtml">*, body, html { -webkit-font-smoothing: antialiased; }
img, svg { max-width: 100%; }
</style>
</defs>
<path d="M485.06,333.28s.21-5-2.29-7.28c0,0-4.37-6.45,0-16.94,0,0,1.92-8.36.55-13.88a14.82,14.82,0,0,1-.42-5.62c.47-3.45,2.38-7.93,8.81-9.51a12.08,12.08,0,0,1,9.92,2.42,6.37,6.37,0,0,0,3.69,1.33,46.31,46.31,0,0,1,8.87,1A12,12,0,0,1,523,293.1a25.53,25.53,0,0,1,1,7.74s.2,8.53,7.9,9.36c0,0,25.15-.62,33.68,16.22,0,0,4.36,8.94,0,14.34,0,0-2.91,6.86.41,10.81,0,0,4.93,7.62,4.65,15.78A14.77,14.77,0,0,1,554,381.46a13.31,13.31,0,0,1-9.24-6s-14.56,18.71-23.7,17.88Z" fill="#2f2e41" data-secondary="true"/>
<polygon points="254.35 551.43 236.64 568.39 243.61 575.01 269.71 558.01 254.35 551.43" fill="#f9b499"/>
<polygon points="331.77 589.77 334.27 565.26 350.6 561.57 342.92 589.77 331.77 589.77" fill="#f9b499"/>
<path d="M291.83,403.75l-86.35,116.7s80.84,83.63,172.14,30.32L335.07,407.05S316.5,413.18,291.83,403.75Z" fill="#2f2e41" data-secondary="true"/>
<path d="M67.71,317.22l20.06-11.47,23.6,25.58s7.94-5.07,19.41-2.42c0,0,6.45-.92,11.24,1.32l30-13.93,12.57,19.75s-18.53,13.81-26,18.44c0,0,6,17.38-9.48,22.58,0,0-11.47,26.82,7.5,56.59,0,0-20.73,23.37-55.13,10.36l-1.11-14.77-7.49,10.36s-7.94-.66-9-5.29c0,0,16.31-24.26,16.53-54,0,0,.67-14.78-6.39-26.24Z" fill="#0071f2" data-primary="true"/>
<path d="M600,457c-19.68-12.32-61.58-45-73.21-54.16a10,10,0,0,1-3.77-6.77,50.84,50.84,0,0,1,.75-14.81,31.92,31.92,0,0,1,8-15.63l12.8-13.84a39.57,39.57,0,0,0-35.76-22.66s1.87,14.55-8.73,22c0,0-9.36,4.15-11,11.64a49.68,49.68,0,0,0-1.7-8.07,21.85,21.85,0,0,1,.74-15.87,25.64,25.64,0,0,1,7.82-9.74,51.8,51.8,0,0,0-29.52,22.66l3.95,4.78s-8.32,15.18,8.31,19.75c0,0,6.24,24.12,3.74,28.28l-50.81,81.89s-8.1,8.1,10.2,12.28a21.82,21.82,0,0,1,6.27,3.66s8.62,8.1,15.16,5.49a9.68,9.68,0,0,1,9.14.52A35.35,35.35,0,0,0,500,510s6.53-3.14,12.54-1.05c0,0,13.33,7.06,25.87-2.35,0,0,8.37-6,15.42-5.75,0,0,18,4.18,23.79-11,0,0,2.87-10.71,9.4-12,0,0,11.68-1.7,16-8.58A9,9,0,0,0,600,457Z" fill="#0071f2" data-primary="true"/>
<circle cx="491.81" cy="418.94" r="3.99" fill="#fff"/>
<circle cx="515.46" cy="418.94" r="3.99" fill="#fff"/>
<circle cx="503.55" cy="443.03" r="3.99" fill="#fff"/>
<circle cx="479.5" cy="443.03" r="3.99" fill="#fff"/>
<circle cx="527.85" cy="443.03" r="3.99" fill="#fff"/>
<circle cx="551.5" cy="443.03" r="3.99" fill="#fff"/>
<circle cx="539.7" cy="467.28" r="3.99" fill="#fff"/>
<circle cx="563.78" cy="467.28" r="3.99" fill="#fff"/>
<circle cx="515.46" cy="467.28" r="3.99" fill="#fff"/>
<circle cx="491.81" cy="467.28" r="3.99" fill="#fff"/>
<circle cx="467.92" cy="467.28" r="3.99" fill="#fff"/>
<circle cx="455.82" cy="490.98" r="3.99" fill="#fff"/>
<circle cx="479.5" cy="490.98" r="3.99" fill="#fff"/>
<circle cx="503.55" cy="490.98" r="3.99" fill="#fff"/>
<circle cx="527.85" cy="490.98" r="3.99" fill="#fff"/>
<path d="M457.79,508.09s6.07,53.63,19.06,83.57h12.26s-12-53.69-9.61-80.59a30.88,30.88,0,0,1-7.79-3,10.22,10.22,0,0,0-8-.44A9,9,0,0,1,457.79,508.09Z" fill="#f9b499"/>
<path d="M512.56,509s3.44,35.36,63.35,68l6.87-7.12s-46-35.27-47.06-61.46C535.72,508.39,527.54,514.11,512.56,509Z" fill="#f9b499"/>
<path d="M451.42,605.11h0a3.94,3.94,0,0,1,2.4-3.63l23-9.82h13.36v18.21h-6.38l-1-9.1-9.4,9.1-18.26-.82A3.94,3.94,0,0,1,451.42,605.11Z" fill="#0071f2" data-primary="true"/>
<path d="M566.53,606.25h0a4,4,0,0,1-1-4.24l8.72-23.47,9.2-9.7,13.21,12.53-4.4,4.63L585,580.45l.15,13.08L572,606.23A4,4,0,0,1,566.53,606.25Z" fill="#0071f2" data-primary="true"/>
<path d="M532.56,364.71s36.4,19.43,69.23,14l12.87,6.66a7,7,0,0,0,7.86-.93l.13-.13a7,7,0,0,0-3.86-12l-8.89-1.3,5.06-4.77a2.12,2.12,0,0,0,.1-3h0a2.13,2.13,0,0,0-2.94-.16c-2.58,2.21-7.64,6.73-9.58,9.63,0,0-46-6.11-58-20.85Z" fill="#f9b499"/>
<path d="M407.32,372.52s46.45-6.76,59-20.74l3.95,4.78s-3.71,7-1.2,12.67c0,0-27.44,13.09-58.6,10.41a8.14,8.14,0,0,0-4.36.85l-11.6,5.8a6.73,6.73,0,0,1-7.16-.74,13.27,13.27,0,0,1-3.05-3.3,6.68,6.68,0,0,1,5.2-10.13l10.73-.88-5.38-5.64a1.58,1.58,0,0,1,.16-2.33h0a1.59,1.59,0,0,1,2.06.06Z" fill="#f9b499"/>
<ellipse cx="307.58" cy="311.7" rx="3.49" ry="5.04" transform="translate(-129.2 280.29) rotate(-41.27)" fill="#f9b499"/>
<path d="M307.58,308.4a20.58,20.58,0,0,1,2.86-10.6,8.58,8.58,0,0,1,7.93-3.9c3.47.27,8.17,1.48,11.16,5.66a22.39,22.39,0,0,1,0,17.69,15.2,15.2,0,0,1-7.79,7.45l-.58,4.42s9.39.47,12.22,1.4l4.85-1.4s2.71-10.35,0-15c0,0-2.3-9.53-1-15.13a19.69,19.69,0,0,0,.39-7.05c-.47-3.42-5.06-9.67-9.29-10.49,0,0-18-8.54-23.47,3.29,0,0-12.41-2.52-14.94,11.06,0,0-2.9,11.25-13.19,10.86,0,0-21.34-.58-19.78,18.05,0,0,1.35,7,4.46,10.08,0,0,2.71,7.57,0,11.64,0,0-5.82,17.46,15.13,14.94,0,0,9.62,14.74,21,15.71l12.55-47.95.54-9.83S307.77,315.38,307.58,308.4Z" fill="#2f2e41" data-secondary="true"/>
<path d="M272.08,339.44l15.71-19.59,15.13,11.64s4.46-3.19,7.18-2.37c0,0,17.65-.74,23.28,1.4l4.85-1.4,14.94-4.42s8.14,15.13,11.63,18.81l-17.26,12.61s8.73,16.1-9.31,20.95l-4.08,21.34s-14,6-39.76-2.33c0,0,1-27-8-39.57Z" fill="#0071f2" data-primary="true"/>
<path d="M329.3,362.33s.78-4.07-8.14-8.92c0,0-15.52-8.81-11.06-24.29l.54-9.83s3.53,7,11.1,5.41l-.58,4.42a53.9,53.9,0,0,1,8.33,11.12,18.06,18.06,0,0,1,2,8.44C331.47,352.3,331.15,358.52,329.3,362.33Z" fill="#f9b499"/>
<path d="M289.73,402.87l4.66-6.79s23.08,8.15,39.76,2.33l4.08,7.76S316.45,415.37,289.73,402.87Z" fill="#2f2e41" data-secondary="true"/>
<path d="M267.92,436.05s33.47,18.31,77.8,7l3.17,10.71s-45.27,13.4-87.51-8.85Z" fill="#fff"/>
<path d="M247.62,463.49l6.89-9.31s40.82,28.11,97.78,11.05l3.2,10.78S297,495.82,247.62,463.49Z" fill="#fff"/>
<path d="M235.84,479.41l6.4-8.64s49.29,39.91,116.25,15.37l3.37,11.39S297.26,525.47,235.84,479.41Z" fill="#fff"/>
<path d="M223.93,495.51l6.93-9.37s57,54,134.17,22.12l3.41,11.49S294.28,554.11,223.93,495.51Z" fill="#fff"/>
<path d="M213,510.33l6.66-9s66.46,68.6,151.78,28.43l3.73,12.62S287.54,584.74,213,510.33Z" fill="#fff"/>
<path d="M274.31,336.65s-23.87-28.83-13.47-88.2l-4.09-11.39a7.14,7.14,0,0,1,4-9h0a7.14,7.14,0,0,1,9.85,7.46l-.68,5.55,5.18-3.29a2.35,2.35,0,0,1,3.37.93h0a2.36,2.36,0,0,1-.62,2.88l-10.95,8.88s-.72,51.61,19.77,70.81Z" fill="#f9b499"/>
<path d="M354.85,327.77s34.78-22,46.86-56.17l-6.09-12.18a2.05,2.05,0,0,1,1-2.79h0a2,2,0,0,1,2.65.89l3.79,7,1.69-4.86a6.92,6.92,0,0,1,11.86-2.16h0a6.93,6.93,0,0,1-.25,9.14l-8.6,9.29s-17.14,56.61-43.85,66.49c-1.52-2.18-3.07-4.52-4.61-7S356.18,330.23,354.85,327.77Z" fill="#f9b499"/>
<path d="M94,312.44s4.85.37,3.31-10c0,0-3.31-13,7.27-15.44,0,0,4.64.67,7.06-6.17,0,0,.88-7.72,12.79-4.19,0,0,11.47-6.62,14.34,7.06,0,0,7-3,9.92,1.89a7.33,7.33,0,0,1,.84,4.91c-.46,2.91-1.24,9.16.26,10.84,0,0,2.61,3.68,0,9a19.38,19.38,0,0,0-2,8.73c0,4,0,8.7,0,8.7L142,330.23s-6.17-2-11.24-1.32c0,0-10.59-2.43-19.41,2.42l-5.72-6.21Z" fill="#2f2e41" data-secondary="true"/>
<path d="M118.41,316.3l.87,12.4s.91,11.45,18.55,27.11c0,0,1.11-16.32-7.05-26.9l.22-5.52Z" fill="#f9b499"/>
<path d="M78.07,248.85c-4.63,26.69,8.16,57.78,8.16,57.78L73.29,314c-11.53-27.2-2.94-65.18-2.94-65.18L66.62,236a6.92,6.92,0,0,1,4.79-8.59l.21-.06a7,7,0,0,1,8.79,7l-.35,8.08,4.15-3.86a1.81,1.81,0,0,1,2.94.72h0a1.83,1.83,0,0,1-.51,2Z" fill="#f9b499"/>
<path d="M175,320.92s24.18-20.46,35-48.47l-4.41-13.21a1.7,1.7,0,0,1,.8-2h0a1.68,1.68,0,0,1,2.35.82l2.8,6.47a26.94,26.94,0,0,0,5.13-10.61,4.65,4.65,0,0,1,6.71-3.08l.41.23a9.43,9.43,0,0,1,1.63,15.21L216.78,274s-13.57,45.89-33.58,59.89Z" fill="#f9b499"/>
<path d="M92.85,439.61s-6.91,7-2.06,34.46c0,0,2.83,44.9-12.54,59.46l-34.78,35,9.71,10.69s73.13-32,73-114.86c0,0,19.65,28.31,19.65,59.45l-8.9,67.84h14.56s26.29-67.44,19.82-100.2c0,0-9.75-44.89-17.21-55.41,0,0-20.53,20-52.62,8l-1.11-14.77Z" fill="#2f2e41" data-secondary="true"/>
<path d="M609,286.11l15.86-12.77L658.1,315.4l33.14,15.49,13.93-3.49,15,3.49,24.39-28.78,7-49.28h18.12L763,311.45s-27.88,59.86-21.61,99.93c0,0,6.28,25.09-.34,29.62l.34,10.11H681.13l.35-10.11s-4.53-2.09-2.44-9.06c0,0,5.92-57.84-6.62-69.34Z" fill="#0071f2" data-primary="true"/>
<polygon points="752.57 250.04 765.28 250.04 766.59 252.83 751.52 252.83 752.57 250.04" fill="#2f2e41" data-secondary="true"/>
<path d="M751.52,241.33v-8.68a5,5,0,0,1,7.09-4.59l4,1.81a5,5,0,0,1,2.77,6l-3.24,11.23.26,3h-8.63v-2.17l-9.8-7.3a1.52,1.52,0,0,1-.16-2.31h0a1.5,1.5,0,0,1,1.81-.24Z" fill="#f9b499"/>
<path d="M695.77,344.83s-1-18,5.74-20.91c0,0-.26,7.84,2.88,9.15Z" fill="#2f2e41" data-secondary="true"/>
<path d="M711.45,344.83l-7.06-11.76,8.36-7.06v-5s4.47,5.19,4.33,9.13Z" fill="#2f2e41" data-secondary="true"/>
<path d="M681.13,451.11s-1.26,10-4.5,16.17c0,0-21.75,38.54-17.93,64.12,0,0,2.94,57.93,6.76,67.63h31.46s-.29-14.41-3.53-26.76a263.14,263.14,0,0,1-5.08-31.09,85.44,85.44,0,0,1,10.74-50.31l11.1-19.61s2.65,47.5,18.82,66.32c0,0,29.7,41.16,45.87,54.69l22.34-22.06S776,552.93,759.52,532.14a86.39,86.39,0,0,1-18.52-55l.41-26.06Z" fill="#2f2e41" data-secondary="true"/>
<path d="M696.64,611.4H654.81a4,4,0,0,1-4-4h0a4,4,0,0,1,2.86-3.83L668.93,599h28Z" fill="#0071f2" data-primary="true"/>
<path d="M805.44,579.61l-29.58,29.58a4,4,0,0,1-5.65,0h0a4,4,0,0,1-.68-4.73l7.09-14,20.2-19.93Z" fill="#0071f2" data-primary="true"/>
<polygon points="701.51 343 700.05 338.99 704.39 333.07 708.31 339.6 706.22 342.98 711.97 395.53 704.39 411.99 695.71 395 701.51 343" fill="#fff"/>
<polygon points="612.56 283.24 611.09 278.13 622.94 271.65 624.85 273.34 612.56 283.24" fill="#2f2e41" data-secondary="true"/>
<path d="M614.75,273.74v2.39l8.19-4.48,4-12.83a1.42,1.42,0,0,0-.88-1.74h0a1.4,1.4,0,0,0-1.73.7L621,264.33l-4.35-9.44a6.49,6.49,0,0,0-10-2.33l-.19.16a8.65,8.65,0,0,0-.28,12.79Z" fill="#f9b499"/>
<path d="M508.76,319.67v9.45s3.1,17.3-13.15,24.7c0,0-5.46,4.41-6.6,9a42.63,42.63,0,0,0-1.81-8.44s-5.85-13.42,8.67-25.24l.31-5.12s7.87,1.8,11.69-9a2.59,2.59,0,0,0,1.3.43l0,.17A22.5,22.5,0,0,0,508.76,319.67Z" fill="#f9b499"/>
<path d="M40.91,495.32S36.5,492,35.36,487c-.85-3.7,1.27-8.33,1.45-8.54l-5.92-1.18s-1.75,7.84,1.22,13.06A14.89,14.89,0,0,0,37.35,495,5.1,5.1,0,0,0,40.91,495.32Z" fill="#0071f2" data-primary="true"/>
<path d="M40.91,495.32S36.5,492,35.36,487c-.85-3.7,1.27-8.33,1.45-8.54l-5.92-1.18s-1.75,7.84,1.22,13.06A14.89,14.89,0,0,0,37.35,495,5.1,5.1,0,0,0,40.91,495.32Z" fill="#fff" opacity="0.2"/>
<path d="M51.18,491.72l5.38,6.16s-15.2,4-23.89-6.72C32.67,491.16,45.47,495.49,51.18,491.72Z" fill="#0071f2" data-primary="true"/>
<path d="M535.91,197.43s-.66-5.2,2-9.26c1.94-3,6.48-4.65,6.74-4.67l-3.11-4.79s-6.48,4-8,9.47a14.09,14.09,0,0,0,.34,6.6A4.85,4.85,0,0,0,535.91,197.43Z" fill="#0071f2" data-primary="true"/>
<path d="M535.91,197.43s-.66-5.2,2-9.26c1.94-3,6.48-4.65,6.74-4.67l-3.11-4.79s-6.48,4-8,9.47a14.09,14.09,0,0,0,.34,6.6A4.85,4.85,0,0,0,535.91,197.43Z" opacity="0.2"/>
<path d="M545.15,202l-.61,7.72s-12.8-7.63-11.26-20.63C533.28,189.09,538.81,200.62,545.15,202Z" fill="#0071f2" data-primary="true"/>
<path d="M381.32,475s2.2-4.72,11.95-2.23c4.37,1.11,11.94,7.54,1.93,13-10.41,5.65-13.69-.26-13.69-.26s16.76-2.75,14.37-9.52c-2.64-7.47-9.67.62-9.67.62A12.79,12.79,0,0,0,381.32,475Z" fill="#2f2e41" data-secondary="true"/>
<path d="M379.69,485.21a5.22,5.22,0,0,1,1.13-6.64l4.16,3.32s-4.05,3.19,0,6.06C385,488,380.28,486.66,379.69,485.21Z" fill="#3f3d56"/>
<path d="M641.1,497.88s3.66-2.31,4-5.1c0,0,3.57.19,4.34,1.35,0,0-1.64,4.62-3.57,5.49C645.91,499.62,641.58,499.91,641.1,497.88Z" fill="#3f3d56"/>
<path d="M131.31,143.2a26.2,26.2,0,0,1,3.6,8c5.65,20.22-3,54.37-3,54.37s-46.44-4.56-58.5-21.73c-9.12-13-9.53-29.31-2.27-41.36a33,33,0,0,1,9.38-10.07C96.51,121.22,119.24,126,131.31,143.2Z" fill="#0071f2" data-primary="true"/>
<path d="M131.91,205.61s2.61,5.11,4.59,4.19,3.45-4.51,2.55-5.5S131.91,205.61,131.91,205.61Z" fill="#0071f2" data-primary="true"/>
<path d="M173.36,251.79a4.9,4.9,0,0,0-1.36-1.7,1.35,1.35,0,0,0-1.2-.25c.07-.18,7.71-18.25,4.7-26-1.64-4.18-12.66-.54-21.52,2.39-7.81,2.58-14,5.83-16.2,3.14-2.05-2.5,1.12-8.61,3.27-13.52,1.26-2.89,2.69-6.16,2.08-6.81s-3.23.6-5.23,1.72c-2.5,1.39-4.66,2.6-5.71,1.57-1.89-1.86-.55-6.39-.49-6.58l.22.06c0,.05-.76,4.44.8,6,.65.64,3-.65,4.81-1.69,2.58-1.44,5.64-3.33,6.79-2.11.91,1-.73,3.94-2.58,8.18-2,4.47-4.39,10.05-2.69,12.24,1.22,1.56,8.07-.7,14.69-2.89,10.11-3.34,21.46-7.54,23.36-2.68,1.31,3.37.91,9.06-.55,17A96,96,0,0,1,173.36,251.79Z" fill="#2f2e41" data-secondary="true"/>
<path d="M112.12,136.28c-.27,2.09-6.82,5.36-11.81,4.73s-7.5-4.35-7.51-6.46c0-4,5.92-4.9,10.91-4.26S112.38,134.19,112.12,136.28Z" fill="#fff" opacity="0.2"/>
<path d="M466.67,115.85a32.7,32.7,0,0,1-.6,11c-5.33,25.67-34.51,58.63-34.51,58.63s-48.93-31.7-52.48-57.68c-2.67-19.63,6.24-38,21.2-47.2a41.56,41.56,0,0,1,16.19-5.8C440.65,71.49,463.13,89.87,466.67,115.85Z" fill="#d1d4d5"/>
<path d="M431.56,185.47s0,7.16,2.69,7.27,6.41-3,6-4.64S431.56,185.47,431.56,185.47Z" fill="#d1d4d5"/>
<path d="M432.44,185.75l-1.43.19a.55.55,0,0,1-.63-.48h0a.57.57,0,0,1,.48-.63l1.43-.19a.56.56,0,0,1,.63.48h0A.56.56,0,0,1,432.44,185.75Z" fill="#0071f2" data-primary="true"/>
<path d="M451.09,260.48a6.13,6.13,0,0,0-.54-2.66,1.66,1.66,0,0,0-1.19-1c.19-.16,19-15.83,20.1-26.12.59-5.58-13.74-7.85-25.25-9.68-10.15-1.62-18.89-1.56-19.79-5.81-.83-3.94,6.19-8.91,11.38-13.13,3.06-2.48,6.53-5.3,6.22-6.37-.37-1.3-3.92-1.18-6.78-1.09-3.58.12-6.67.22-7.24-1.53-1-3.15,3.05-7.4,3.22-7.58l.21.2s-3.39,4.48-2.53,7.08c.35,1.08,3.65,1,6.31.88,3.68-.12,8.17-.46,8.74,1.55.46,1.6-3.07,4-7.55,7.6-4.74,3.85-10.63,8.64-10,12,.45,2.43,9.35,3.85,18,5.22,13.14,2.09,28.14,3.94,27.46,10.42-.48,4.5-4.19,10.57-10.37,18.57A117,117,0,0,1,451.09,260.48Z" fill="#0071f2" data-primary="true"/>
<path d="M466.67,115.85a32.7,32.7,0,0,1-.6,11c-8.14,15.59-26.81,21.35-52.28,10.53C361.05,115,400.28,80.59,400.28,80.59h0a41.56,41.56,0,0,1,16.19-5.8C440.65,71.49,463.13,89.87,466.67,115.85Z" fill="#fff" opacity="0.2"/>
<path d="M118.82,322.16l-.41-5.86L131,324.53l-.1,2.48S125,328.69,118.82,322.16Z" fill="#f7a88f"/>
<ellipse cx="116.64" cy="311.43" rx="3.77" ry="5.18" transform="translate(-99.36 58.57) rotate(-19.97)" fill="#f9b499"/>
<ellipse cx="129.12" cy="308.73" rx="12.02" ry="15.99" fill="#f9b499"/>
<path d="M117.85,303.19s8.82-4.21,10.3-10.39c0,0,5,5.71,9.73,5l3.26-5.05L132,289.1l-14.88.78-2.5,9.41Z" fill="#2f2e41" data-secondary="true"/>
<path d="M174.89,604.3h0a4,4,0,0,0-2.4-3.63l-23-9.82H136.09v18.21h6.39l1-9.1,9.39,9.1,18.26-.82A4,4,0,0,0,174.89,604.3Z" fill="#0071f2" data-primary="true"/>
<path d="M60.23,604.53h0a4,4,0,0,0,1-4.24l-8.72-23.47-9.19-9.7L30.09,579.64l4.39,4.64,7.28-5.55-.14,13.08L54.77,604.5A4,4,0,0,0,60.23,604.53Z" fill="#0071f2" data-primary="true"/>
<path d="M310.7,317.45l-.24,5s4.51,6.26,11.28,3.06C321.74,325.49,313.57,321.11,310.7,317.45Z" fill="#f7a88f"/>
<path d="M331.44,308.4c0,9-5.34,17.42-11.93,17.42s-11.93-8.42-11.93-17.42,5.34-16.29,11.93-16.29S331.44,299.4,331.44,308.4Z" fill="#f9b499"/>
<path d="M309.89,298.74s4.37-6.83,12.49-5.32a9,9,0,0,1,6.69,5.23l0,.09v-10l-2.56-2.09-19,5Z" fill="#2f2e41" data-secondary="true"/>
<path d="M368.47,603.22h0a4,4,0,0,0-2.4-3.63l-23-9.82H329.67V608h6.39l1-9.1,9.39,9.1,18.27-.82A4,4,0,0,0,368.47,603.22Z" fill="#0071f2" data-primary="true"/>
<path d="M253.2,604.06h0a3.93,3.93,0,0,0,1-4.24l-8.72-23.47-9.19-9.7-13.21,12.52,4.39,4.64,7.28-5.55-.14,13.08L247.74,604A4,4,0,0,0,253.2,604.06Z" fill="#0071f2" data-primary="true"/>
<path d="M496.08,322.59v3.49s9.73,1.05,11.79-11.11C507.87,315,501.57,323.29,496.08,322.59Z" fill="#f7a88f"/>
<ellipse cx="497.64" cy="309.06" rx="11.12" ry="15.07" fill="#f9b499"/>
<ellipse cx="509.17" cy="311.45" rx="2.91" ry="3.95" fill="#f9b499"/>
<path d="M701.85,322.59s-.87,1.05-.08,5.51c0,0,.72,4.46,2.62,5l8.36-7.06v-5l.22-5.78Z" fill="#f9b499"/>
<path d="M701.54,324.65a3.32,3.32,0,0,1,.31-2.06l11.09-6.54-.08,2.23S709.07,325.42,701.54,324.65Z" fill="#f7a88f"/>
<ellipse cx="703.34" cy="305.49" rx="11.5" ry="18.42" fill="#f9b499"/>
<path d="M692.26,300.58s3-9.46,15.14-5.28c0,0,6.05,1.52,6.61,13.76,0,0,3.1-3.63,4.65-.66,0,0,.61,7.49-5.72,7.65l-.94,1.54s7.64.83,14-14.11a20.67,20.67,0,0,0,1.15-13.31,14.92,14.92,0,0,0-8.7-10.42s-17.12-6.14-30.31,5.49c0,0-4.71,5.1,1.7,9.15C689.89,294.39,688.73,297.7,692.26,300.58Z" fill="#2f2e41" data-secondary="true"/>
<ellipse cx="715.42" cy="311.75" rx="4.97" ry="2.71" transform="translate(87.73 775.45) rotate(-60)" fill="#f9b499"/>
<path d="M132.64,205.49l-.94.66a.44.44,0,0,1-.63-.11h0a.45.45,0,0,1,.11-.62l.95-.66a.43.43,0,0,1,.62.11h0A.44.44,0,0,1,132.64,205.49Z" fill="#2f2e41" data-secondary="true"/>
<path d="M765.64,156.4a26.08,26.08,0,0,1-6.32,6.14c-17.08,12.21-52.13,15.75-52.13,15.75s-11.57-45.21.44-62.41c9.09-13,24.3-19,38.1-16.26A33.2,33.2,0,0,1,758.4,105C774.41,116.19,777.66,139.2,765.64,156.4Z" fill="#bcbec0"/>
<path d="M707.19,178.29s-3.91,4.19-2.37,5.74,5.42,1.7,6,.52S707.19,178.29,707.19,178.29Z" fill="#bcbec0"/>
<path d="M678,233a5,5,0,0,0,1.12-1.86,1.33,1.33,0,0,0-.16-1.22c.19,0,19.78,1,26-4.45,3.38-3-3.81-12.08-9.59-19.4-5.09-6.46-10.26-11.17-8.48-14.16,1.65-2.77,8.48-1.88,13.82-1.55,3.15.2,6.71.43,7.11-.36.49-1-1.66-2.83-3.4-4.33-2.16-1.87-4-3.49-3.42-4.83,1.1-2.41,5.81-2.7,6-2.71v.23s-4.42.8-5.33,2.79c-.38.83,1.62,2.56,3.23,4,2.23,1.92,5.06,4.16,4.3,5.65-.59,1.19-3.95.67-8.56.37-4.88-.31-11-.69-12.42,1.66-1.06,1.67,3.41,7.34,7.73,12.82,6.59,8.36,14.41,17.59,10.49,21-2.72,2.39-8.2,3.95-16.18,5.3A95.07,95.07,0,0,1,678,233Z" fill="#2f2e41" data-secondary="true"/>
<path d="M765.59,136c-2.05.47-7.37-4.57-8.47-9.48s1.52-8.53,3.5-9.26c3.79-1.39,6.63,3.89,7.73,8.8S767.65,135.54,765.59,136Z" fill="#fff" opacity="0.2"/>
<path d="M707.55,178.94l-.94-.66a.46.46,0,0,1-.11-.63h0a.45.45,0,0,1,.62-.11l1,.66a.45.45,0,0,1,.11.62h0A.45.45,0,0,1,707.55,178.94Z" fill="#2f2e41" data-secondary="true"/>
</svg>